<?xml version="1.0" encoding="UTF-8" standalone="no"?>
<!-- Created with Inkscape (http://www.inkscape.org/) -->

<svg
   xmlns:dc="http://purl.org/dc/elements/1.1/"
   xmlns:cc="http://creativecommons.org/ns#"
   xmlns:rdf="http://www.w3.org/1999/02/22-rdf-syntax-ns#"
   xmlns:svg="http://www.w3.org/2000/svg"
   xmlns="http://www.w3.org/2000/svg"
   xmlns:sodipodi="http://sodipodi.sourceforge.net/DTD/sodipodi-0.dtd"
   xmlns:inkscape="http://www.inkscape.org/namespaces/inkscape"
   width="50mm"
   height="50mm"
   viewBox="0 0 50 50"
   version="1.1"
   id="svg1"
   xml:space="preserve"
   inkscape:version="0.92.3 (2405546, 2018-03-11)"
   sodipodi:docname="community-icon.svg"><metadata
     id="metadata11"><rdf:RDF><cc:Work
         rdf:about=""><dc:format>image/svg+xml</dc:format><dc:type
           rdf:resource="http://purl.org/dc/dcmitype/StillImage" /></cc:Work></rdf:RDF></metadata><sodipodi:namedview
     id="namedview1"
     pagecolor="#ffffff"
     bordercolor="#000000"
     borderopacity="0.25"
     inkscape:showpageshadow="2"
     inkscape:pageopacity="0.0"
     inkscape:pagecheckerboard="0"
     inkscape:deskcolor="#d1d1d1"
     inkscape:document-units="mm"
     inkscape:zoom="8.3553674"
     inkscape:cx="88.968623"
     inkscape:cy="123.41101"
     inkscape:window-width="2560"
     inkscape:window-height="1417"
     inkscape:window-x="2552"
     inkscape:window-y="-8"
     inkscape:window-maximized="1"
     inkscape:current-layer="layer1"
     showgrid="false" /><defs
     id="defs1" /><g
     inkscape:label="Layer 1"
     inkscape:groupmode="layer"
     id="layer1"
     transform="translate(-28.689342,-95.641012)"><path
       style="fill:#eea62b;fill-opacity:1;stroke:none;stroke-width:3.77952766"
       d="m 126.04688,29.009766 c -12.32658,0.236412 -16.83204,5.205078 -16.83204,5.205078 28.22342,12.990777 27.2399,42.660054 13.78516,58.443359 12.55947,0.52332 24.6198,-5.977312 30.62109,-15.244141 10.62777,-16.933037 1.92481,-40.244641 -16.88671,-46.695312 -3.59055,-1.231243 -7.16933,-1.779022 -10.6875,-1.708984 z m -63.10938,0.0039 c -3.520796,-0.07099 -7.099822,0.476826 -10.681641,1.705078 -18.896211,6.479698 -27.479584,29.705065 -16.939453,46.693359 9.862347,11.996241 16.446427,15.083799 30.685547,15.322266 0,0 -26.213839,-35.620832 13.773438,-58.521484 0,0 -4.387303,-5.080911 -16.837891,-5.199219 z m 32.128906,7.998047 c -6.754353,0.05062 -14.320757,2.600861 -19.130859,5.978515 -17.75425,12.750582 -16.430641,38.768905 -0.900391,51.054688 -5.756643,1.800422 -11.557181,4.90057 -16.060587,8.210984 -10.844071,8.0654 -18.514758,19.47134 -22.214843,32.4375 -1.294095,4.53487 -5.433886,14.94177 -0.5,18.33594 8.303899,2.68808 18.077289,3.32849 25.916015,4.42578 25.658155,3.5752 51.580079,3.46958 77.119139,-1.13672 3.99122,-0.71985 11.85585,-0.94959 14.51172,-4.37891 3.16619,-4.0882 -0.26859,-13.51903 -1.71094,-17.88476 -4.37986,-13.25707 -12.24861,-25.33573 -24,-33.17383 -4.75213,-3.287792 -9.12615,-5.275417 -14.04687,-6.871093 C 134.01088,78.233625 127.96415,43.713126 101.85543,37.869182 99.662568,37.378339 97.359496,37.062009 95.066366,37.01176 Z M 40.693359,89.287109 C 22.777742,97.268073 11.768108,107.61052 5.6425781,126.05469 c -1.3320113,4.01072 -5.72670044,12.77584 -3.1367187,16.63867 2.1510536,3.20821 5.2630201,3.5195 8.7890626,4.22461 6.069044,1.21364 11.065027,2.36083 17.140625,3.53906 1.381168,-21.66768 12.158013,-41.50345 31.906761,-53.981131 -7.673292,-0.963364 -13.154252,-2.505166 -19.648949,-7.18879 z m 108.480471,0 c -7.08451,4.94615 -12.05277,6.42847 -21.0918,7.185547 15.7446,6.147444 31.707,32.633284 32.24958,53.462354 6.61678,-0.0548 12.78764,-1.9167 19.28362,-3.22407 2.66631,-0.53662 5.56242,-1.55272 7.03711,-4.01758 1.13217,-5.36712 -1.14245,-12.26365 -2.66406,-16.95898 -5.39921,-16.25708 -17.42763,-31.690835 -34.81445,-36.447271 z"
       transform="matrix(0.26458333,0,0,0.26458333,28.689342,95.641012)"
       id="path1"
       inkscape:connector-curvature="0"
       sodipodi:nodetypes="ccccccccccccccccsccccsccccccscscccccccccc" /></g></svg>