<?xml version="1.0" encoding="UTF-8" standalone="no"?>
<!-- Created with Inkscape (http://www.inkscape.org/) -->

<svg
   width="50mm"
   height="50mm"
   viewBox="0 0 50 50"
   version="1.1"
   id="svg1"
   xml:space="preserve"
   inkscape:version="1.3.2 (091e20ef0f, 2023-11-25, custom)"
   sodipodi:docname="community-icon.svg"
   xmlns:inkscape="http://www.inkscape.org/namespaces/inkscape"
   xmlns:sodipodi="http://sodipodi.sourceforge.net/DTD/sodipodi-0.dtd"
   xmlns="http://www.w3.org/2000/svg"
   xmlns:svg="http://www.w3.org/2000/svg"><sodipodi:namedview
     id="namedview1"
     pagecolor="#ffffff"
     bordercolor="#000000"
     borderopacity="0.25"
     inkscape:showpageshadow="2"
     inkscape:pageopacity="0.0"
     inkscape:pagecheckerboard="0"
     inkscape:deskcolor="#d1d1d1"
     inkscape:document-units="mm"
     inkscape:zoom="4.1776837"
     inkscape:cx="109.27108"
     inkscape:cy="123.87247"
     inkscape:window-width="2560"
     inkscape:window-height="1011"
     inkscape:window-x="0"
     inkscape:window-y="0"
     inkscape:window-maximized="1"
     inkscape:current-layer="layer1" /><defs
     id="defs1" /><g
     inkscape:label="Layer 1"
     inkscape:groupmode="layer"
     id="layer1"
     transform="translate(-28.689342,-95.641012)"><path
       style="fill:#eea62b;stroke:none;fill-opacity:1"
       d="m 45.817222,118.32449 c -1.853403,0 -3.790284,-0.45647 -5.161335,-1.78564 -3.258532,-3.15902 -2.256794,-8.54048 1.605335,-10.63423 1.303135,-0.70646 2.792118,-0.87553 4.233333,-0.54367 0.575355,0.13248 1.73623,0.82989 2.278094,0.70242 0.4456,-0.10482 0.84409,-0.99012 1.02391,-1.37022 -2.22956,-1.37464 -4.754165,-1.79126 -7.281337,-0.92466 -4.999623,1.71442 -7.270524,7.85984 -4.481781,12.35466 1.202755,1.93857 3.393496,3.55757 5.667114,3.94249 0.49739,0.0842 1.822669,0.36915 2.198654,-0.1106 0.247976,-0.31641 -0.05183,-1.24837 -0.08199,-1.63055 m 11.768667,-13.63134 0.931333,1.524 c 2.07278,-0.86182 4.0992,-1.46501 6.26534,-0.48154 4.17304,1.89466 5.419,7.96552 1.69333,11.02555 -1.45208,1.19265 -3.11826,1.42147 -4.91067,1.64799 -0.0634,0.34164 -0.28879,1.2651 -0.079,1.55765 0.40443,0.56392 2.16793,0.13478 2.70365,-0.002 2.11377,-0.54082 3.99097,-2.00224 5.14526,-3.84136 2.81193,-4.4802 0.50929,-10.64792 -4.46793,-12.35466 -2.53333,-0.86871 -5.04766,-0.45252 -7.281333,0.92466 m -4.826,0.798 c -1.42887,0.1945 -2.80002,0.67732 -3.97933,1.52426 -5.69671,4.09121 -3.975343,13.35004 2.87866,15.02344 0.90083,0.21993 1.86716,0.35165 2.794,0.2408 1.40124,-0.16758 2.71839,-0.59483 3.89467,-1.38733 5.894443,-3.97132 4.415373,-13.6371 -2.70933,-15.23183 -0.92831,-0.20779 -1.93126,-0.2983 -2.87867,-0.16934 m 0,1.85117 c 0.96773,-0.12575 2.03609,-0.0384 2.96333,0.25864 6.277393,2.01092 5.812333,11.82225 -0.93133,12.7311 -1.38043,0.18604 -2.79015,0.0399 -4.064,-0.5589 -5.716631,-2.68701 -4.131144,-11.62994 2.032,-12.43084 m -13.462,11.32083 c -4.740174,2.11163 -7.495065,5.44932 -9.115778,10.32934 -0.352428,1.06117 -1.515012,3.38062 -0.829746,4.40266 0.569133,0.84884 1.392592,0.93103 2.325524,1.11759 1.605768,0.32111 3.218498,0.60267 4.826,0.91441 l 0.254,-1.94733 -5.588,-0.93133 c 0.149652,-3.47659 2.222274,-7.38502 4.826,-9.61574 0.764633,-0.6551 1.581925,-1.24087 2.455333,-1.74227 0.397225,-0.22804 1.074496,-0.42445 1.386939,-0.7488 0.321986,-0.33427 -0.328931,-1.46027 -0.540272,-1.77853 m 28.702003,0 -0.59267,1.778 c 5.01773,1.94673 8.14539,6.91269 8.80534,12.10734 l -5.67267,0.93133 0.254,1.86267 c 1.75069,-0.0145 3.69994,-0.53878 5.41867,-0.88469 0.70546,-0.14198 1.4717,-0.41055 1.86188,-1.06271 0.32118,-0.53684 0.0955,-1.06244 -0.0404,-1.6086 -0.23921,-0.96155 -0.34973,-1.93118 -0.6644,-2.87867 -1.42859,-4.3015 -4.76927,-8.98639 -9.36978,-10.24467 m -8.46667,2.11667 -0.59266,1.778 c 1.08636,0.31296 2.14977,1.07828 3.048,1.74664 3.10825,2.31281 5.58695,6.40311 5.75733,10.36069 -1.70712,0.0735 -3.46325,0.5991 -5.16467,0.82283 -3.19522,0.42015 -6.430783,0.63198 -9.652003,0.61644 -2.90108,-0.014 -5.846343,-0.28602 -8.720664,-0.7002 -1.503192,-0.2166 -3.058742,-0.67392 -4.572,-0.73907 0.154288,-3.58413 2.251898,-7.3989 4.910667,-9.71216 1.193861,-1.03872 2.537143,-1.70428 3.894666,-2.47984 l -0.592666,-1.69333 c -1.279768,0.29621 -2.514674,1.14148 -3.556,1.91598 -2.869161,2.13397 -4.898689,5.15206 -5.87767,8.58269 -0.342396,1.19985 -1.437781,3.95318 -0.132357,4.85122 0.595797,0.40986 1.505773,0.39708 2.200027,0.49382 1.553415,0.21645 3.103069,0.46085 4.656667,0.67733 6.78872,0.94594 13.647463,0.91778 20.404673,-0.30097 1.05601,-0.19046 3.13702,-0.25095 3.83972,-1.15829 0.83772,-1.08167 -0.0715,-3.57735 -0.45312,-4.73245 -1.15884,-3.5076 -3.24072,-6.70328 -6.34994,-8.77711 -0.89833,-0.59918 -1.96556,-1.36583 -3.048,-1.55222 z"
       id="path1" /><ellipse
       style="fill:#eea62b;fill-opacity:1;stroke:none;stroke-width:2.84042;stroke-linecap:round;stroke-linejoin:round"
       id="path2"
       cx="53.431007"
       cy="114.0487"
       rx="7.3987951"
       ry="6.8855414" /><ellipse
       style="fill:#eea62b;fill-opacity:1;stroke:none;stroke-width:3.48823;stroke-linecap:round;stroke-linejoin:round"
       id="path2-2"
       cx="53.721493"
       cy="126.6187"
       rx="11.158578"
       ry="6.8855414" /><path
       style="fill:#eea62b;fill-opacity:1;stroke:none;stroke-width:3.12112;stroke-linecap:round;stroke-linejoin:round"
       d="m 78.705014,152.32093 c -10.394137,-0.83329 -18.711483,-1.89424 -26.404263,-3.3681 -2.792758,-0.53507 -5.839404,-1.06661 -6.770323,-1.1812 -0.93092,-0.11459 -2.206319,-0.28822 -2.834221,-0.38584 l -1.141639,-0.17748 0.239013,-2.43113 c 0.672371,-6.83902 3.939844,-15.45328 8.559277,-22.5654 l 1.864078,-2.86994 0.897726,2.76285 c 3.511336,10.80654 17.053756,18.95281 34.542054,20.77832 5.21667,0.54454 13.964134,0.22206 18.975884,-0.69955 6.94403,-1.27693 14.51075,-4.2076 19.35877,-7.49783 4.86918,-3.30459 8.80811,-8.17743 10.13113,-12.53319 0.39609,-1.30404 0.84288,-2.24475 0.99287,-2.09046 0.14999,0.15429 1.13348,1.65152 2.18553,3.32717 4.32144,6.88296 7.30113,14.97086 7.83284,21.26105 l 0.21387,2.53011 -0.97745,0.18528 c -0.5376,0.10191 -1.89145,0.28593 -3.00855,0.40895 -1.11711,0.12301 -4.71975,0.73607 -8.00587,1.36234 -6.36644,1.21332 -11.28278,1.87181 -20.26024,2.71362 -6.5576,0.6149 -30.696021,0.92695 -36.390486,0.47043 z"
       id="path3"
       transform="matrix(0.26458333,0,0,0.26458333,28.689342,95.641012)" /><path
       style="fill:#eea62b;fill-opacity:1;stroke:none;stroke-width:0.78028;stroke-linecap:round;stroke-linejoin:round"
       d="m 51.582065,114.94856 c -1.917944,0.17385 -3.5022,1.51303 -4.446661,3.12632 -1.981983,3.01065 -3.82107,6.12038 -5.312621,9.40605 -2.886834,6.11317 -4.843122,12.73418 -5.182042,19.50915 -0.04247,2.34917 1.69244,4.56344 3.991728,5.06132 2.619617,0.45518 5.265257,0.76295 7.879949,1.25582 4.81189,0.87128 9.676373,1.77348 14.561253,2.37519 5.529594,0.69709 11.075322,1.30254 16.638337,1.6541 6.358747,0.2592 12.72588,0.13584 19.087525,0.0683 6.917057,-0.12258 13.848687,-0.22035 20.729057,-1.01265 6.25599,-0.59359 12.47169,-1.54619 18.64184,-2.73025 3.14004,-0.62223 6.3196,-0.99634 9.47886,-1.49865 2.03446,-0.18847 3.90702,-1.6316 4.44849,-3.62587 0.42519,-1.55651 0.0133,-3.17408 -0.0789,-4.75182 -0.6141,-5.8446 -2.55631,-11.48039 -5.07525,-16.76257 -1.60168,-3.26096 -3.4262,-6.42227 -5.52185,-9.3907 -1.50337,-2.07586 -4.54402,-2.82814 -6.81079,-1.5995 -1.66229,0.8043 -2.57654,2.52612 -3.07715,4.22589 -1.22284,3.90298 -4.08541,7.04805 -7.23743,9.53846 -3.67624,2.72963 -7.96296,4.5079 -12.29125,5.92041 -3.60332,1.16606 -7.33829,1.91591 -11.1187,2.17191 -6.013036,0.48557 -12.114565,0.47365 -18.046373,-0.74059 -6.603055,-1.30345 -13.162303,-3.66559 -18.492028,-7.8736 -2.814332,-2.244 -5.277718,-5.08637 -6.448342,-8.54006 -0.580584,-1.69082 -1.059498,-3.58487 -2.580851,-4.70208 -1.047604,-0.82823 -2.410377,-1.21063 -3.736821,-1.08459 z"
       id="path4"
       transform="matrix(0.26458333,0,0,0.26458333,28.689342,95.641012)" /></g></svg>
