<svg id="Capa_1" enable-background="new 0 0 512.268 512.268" height="512" viewBox="0 0 512.268 512.268" width="512" xmlns="http://www.w3.org/2000/svg"><g><g><g><g><ellipse cx="256.268" cy="256.094" fill="#77b0fb" rx="248" ry="248" transform="matrix(.707 -.707 .707 .707 -106.027 256.217)"/><g><path d="m256.268 8.094v496c136.967 0 248-111.032 248-247.999 0-136.968-111.033-248.001-248-248.001z" fill="#5a9ffb"/></g></g></g></g><path d="m257.804.112c-.513-.017-1.024-.017-1.536-.03v512.104c65.522-.009 131.016-25.07 181.02-75.073 48.352-48.353 74.98-112.64 74.98-181.02 0-140.869-113.557-255.157-254.464-255.981zm223.954 240.982h-75.335c-1.98-37.054-11.24-73.388-26.712-107.082 15.352-8.472 29.884-18.582 43.389-30.213 33.572 36.746 55.187 84.581 58.658 137.295zm-80.422-158.15c-11.108 9.323-22.986 17.484-35.476 24.428-15.234-26.116-34.38-50.144-56.861-71.052 34.519 8.282 65.979 24.504 92.337 46.624zm-130.068-39.491c27.225 21.45 50.015 47.622 67.37 76.73-21.377 8.363-44.05 13.443-67.37 14.97zm0 121.753c28.241-1.63 55.675-7.841 81.393-18.292 13.568 29.686 21.774 61.618 23.716 94.18h-105.109zm0 105.888h105.108c-1.941 32.561-10.147 64.493-23.716 94.18-25.718-10.451-53.151-16.662-81.393-18.292v-75.888zm0 197.64v-91.7c23.32 1.526 45.993 6.606 67.37 14.97-17.355 29.108-40.145 55.28-67.37 76.73zm37.731 7.133c22.481-20.908 41.627-44.936 56.861-71.052 12.489 6.943 24.367 15.104 35.476 24.428-26.358 22.12-57.818 38.342-92.337 46.624zm114.101-67.479c-13.505-11.631-28.037-21.741-43.389-30.213 15.472-33.694 24.731-70.028 26.712-107.082h75.335c-3.471 52.714-25.086 100.549-58.658 137.295z" fill="#77b0fb"/><path d="m0 256.141c0 68.38 26.629 132.667 74.98 181.019 50.096 50.096 115.572 75.083 181.02 75.074l1.536-512.075c-131.66-4.389-257.536 107.233-257.536 255.982zm205.956-220.407c-23.016 21.278-42.565 45.813-58.03 72.517-13.044-7.121-25.437-15.559-36.994-25.26 27.042-22.693 59.45-39.183 95.024-47.257zm-116.788 68.112c13.977 12.037 29.06 22.431 45.005 31.08-15.233 33.451-24.355 69.479-26.319 106.215h-77.344c3.471-52.715 25.086-100.55 58.658-137.295zm-58.658 167.295h77.344c1.964 36.736 11.086 72.763 26.319 106.215-15.945 8.649-31.028 19.043-45.005 31.08-33.572-36.747-55.187-84.582-58.658-137.295zm80.422 158.149c11.558-9.7 23.95-18.139 36.994-25.26 15.465 26.704 35.015 51.239 58.03 72.517-35.574-8.074-67.982-24.565-95.024-47.257zm130.068 37.893c-26.534-21.306-48.765-47.126-65.739-75.77 20.898-7.987 43.012-12.845 65.739-14.332zm0-120.155c-27.62 1.594-54.466 7.577-79.69 17.617-13.385-29.495-21.482-61.19-23.408-93.505h103.098zm0-105.887h-103.099c1.926-32.316 10.023-64.01 23.408-93.505 25.225 10.04 52.07 16.023 79.69 17.617v75.888zm0-105.941c-22.728-1.487-44.841-6.345-65.739-14.332 16.975-28.643 39.205-54.464 65.739-75.77z" fill="#84d9f3"/></g></svg>