<?xml version="1.0" encoding="UTF-8" standalone="no"?>
<svg
   version="1.1"
   x="0px"
   y="0px"
   viewBox="0 0 90 90"
   enable-background="new 0 0 100 100"
   xml:space="preserve"
   id="svg5"
   sodipodi:docname="noun-community-39138.svg"
   width="90"
   height="90"
   inkscape:version="1.3.2 (091e20ef0f, 2023-11-25, custom)"
   xmlns:inkscape="http://www.inkscape.org/namespaces/inkscape"
   xmlns:sodipodi="http://sodipodi.sourceforge.net/DTD/sodipodi-0.dtd"
   xmlns="http://www.w3.org/2000/svg"
   xmlns:svg="http://www.w3.org/2000/svg"><defs
     id="defs5" /><sodipodi:namedview
     id="namedview5"
     pagecolor="#ffffff"
     bordercolor="#000000"
     borderopacity="0.25"
     inkscape:showpageshadow="2"
     inkscape:pageopacity="0.0"
     inkscape:pagecheckerboard="0"
     inkscape:deskcolor="#d1d1d1"
     inkscape:zoom="6.44"
     inkscape:cx="30.201863"
     inkscape:cy="47.282609"
     inkscape:window-width="2560"
     inkscape:window-height="1011"
     inkscape:window-x="0"
     inkscape:window-y="0"
     inkscape:window-maximized="1"
     inkscape:current-layer="g4" /><g
     id="g4"
     transform="translate(-8.7589998,-7.500001)"><circle
       fill="#000000"
       cx="53.758999"
       cy="19.742001"
       r="12.242"
       id="circle1"
       style="fill:#eea62b;fill-opacity:1" /><circle
       fill="#000000"
       cx="20.238001"
       cy="35.549999"
       r="9.9650002"
       id="circle2"
       style="fill:#eea62b;fill-opacity:1" /><path
       fill="#000000"
       d="M 47.633,92.602 C 41.419,88.856 24.43,77.448 16.196,60.301 c -3.363,-7.002 -0.865,-9.157 2.386,-12.903 2.265,0.651 4.769,0.507 7.059,-0.593 2.292,-1.1 3.97,-2.964 4.878,-5.138 1.059,-0.042 2.039,-0.101 2.96,-0.102 -0.136,1.048 -0.204,2.19 -0.204,3.444 0,10.253 2.387,21.276 7.093,32.763 2.396,5.846 5.04,10.92 7.271,14.795 -0.002,0.01 -0.005,0.024 -0.006,0.035 z"
       id="path2"
       style="fill:#eea62b;fill-opacity:1" /><path
       fill="#000000"
       d="m 36.119,45.007 c 0,-9.543 3.912,-10.601 9.504,-13.022 2.163,1.925 5.011,3.097 8.136,3.097 3.125,0 5.972,-1.171 8.136,-3.097 5.592,2.421 9.504,3.48 9.504,13.022 0,23.37 -12.748,45.039 -17.64,52.493 -4.891,-7.454 -17.64,-29.122 -17.64,-52.493 z"
       id="path3"
       style="fill:#eea62b;fill-opacity:1" /><path
       fill="#000000"
       d="m 91.321,60.301 c -8.233,17.148 -25.222,28.555 -31.437,32.301 -10e-4,-0.013 -0.003,-0.025 -0.006,-0.038 2.229,-3.875 4.875,-8.949 7.271,-14.795 4.707,-11.487 7.093,-22.51 7.093,-32.763 0,-1.254 -0.069,-2.396 -0.204,-3.444 0.921,0 1.9,0.06 2.96,0.102 0.908,2.175 2.586,4.038 4.878,5.138 2.292,1.1 4.794,1.244 7.059,0.593 3.251,3.749 5.749,5.905 2.386,12.906 z"
       id="path4"
       style="fill:#eea62b;fill-opacity:1" /><circle
       fill="#000000"
       cx="87.279999"
       cy="35.549999"
       r="9.9650002"
       id="circle4"
       style="fill:#eea62b;fill-opacity:1" /></g></svg>
