<?xml version="1.0" encoding="UTF-8" standalone="no"?>
<svg width="360px" height="300px" viewBox="0 0 360 300" version="1.1" xmlns="http://www.w3.org/2000/svg" xmlns:xlink="http://www.w3.org/1999/xlink" xmlns:sketch="http://www.bohemiancoding.com/sketch/ns">
    <title>Slice 1</title>
    <description>Created with Sketch (http://www.bohemiancoding.com/sketch)</description>
    <defs></defs>
    <g id="Page-1" stroke="none" stroke-width="1" fill="none" fill-rule="evenodd" sketch:type="MSPage">
        <rect id="Rectangle-37" fill="#57B26E" sketch:type="MSShapeGroup" x="-980" y="-380" width="1740" height="1060"></rect>
        <g id="Page" sketch:type="MSLayerGroup" fill="#1A3238">
            <g id="Glider" transform="translate(0.000000, 100.000000)" sketch:type="MSShapeGroup">
                <rect id="Rectangle-1" x="20" y="0" width="20" height="20"></rect>
                <rect id="Rectangle-1" x="40" y="20" width="20" height="20"></rect>
                <rect id="Rectangle-1" x="80" y="20" width="20" height="20"></rect>
                <rect id="Rectangle-1" x="60" y="40" width="20" height="20"></rect>
                <rect id="Rectangle-1" x="80" y="40" width="20" height="20"></rect>
                <rect id="Rectangle-1" x="100" y="40" width="20" height="20"></rect>
                <rect id="Rectangle-1" x="0" y="60" width="20" height="20"></rect>
                <rect id="Rectangle-1" x="20" y="60" width="20" height="20"></rect>
                <rect id="Rectangle-1" x="40" y="60" width="20" height="20"></rect>
                <rect id="Rectangle-1" x="60" y="60" width="20" height="20"></rect>
                <rect id="Rectangle-1" x="80" y="60" width="20" height="20"></rect>
                <rect id="Rectangle-1" x="140" y="0" width="20" height="20"></rect>
            </g>
            <g id="Glider" transform="translate(20.000000, 0.000000)" sketch:type="MSShapeGroup">
                <rect id="Rectangle-1" x="240" y="0" width="20" height="20"></rect>
                <rect id="Rectangle-1" x="260" y="20" width="20" height="20"></rect>
                <rect id="Rectangle-1" x="300" y="20" width="20" height="20"></rect>
                <rect id="Rectangle-1" x="280" y="40" width="20" height="20"></rect>
                <rect id="Rectangle-1" x="300" y="40" width="20" height="20"></rect>
                <rect id="Rectangle-1" x="320" y="40" width="20" height="20"></rect>
                <rect id="Rectangle-1" x="220" y="60" width="20" height="20"></rect>
                <rect id="Rectangle-1" x="240" y="60" width="20" height="20"></rect>
                <rect id="Rectangle-1" x="260" y="60" width="20" height="20"></rect>
                <rect id="Rectangle-1" x="280" y="60" width="20" height="20"></rect>
                <rect id="Rectangle-1" x="300" y="60" width="20" height="20"></rect>
                <rect id="Rectangle-1" x="0" y="0" width="20" height="20"></rect>
            </g>
            <g id="Glider" transform="translate(120.000000, 200.000000)" sketch:type="MSShapeGroup">
                <rect id="Rectangle-1" x="20" y="0" width="20" height="20"></rect>
                <rect id="Rectangle-1" x="40" y="20" width="20" height="20"></rect>
                <rect id="Rectangle-1" x="80" y="20" width="20" height="20"></rect>
                <rect id="Rectangle-1" x="60" y="40" width="20" height="20"></rect>
                <rect id="Rectangle-1" x="80" y="40" width="20" height="20"></rect>
                <rect id="Rectangle-1" x="100" y="40" width="20" height="20"></rect>
                <rect id="Rectangle-1" x="0" y="60" width="20" height="20"></rect>
                <rect id="Rectangle-1" x="20" y="60" width="20" height="20"></rect>
                <rect id="Rectangle-1" x="40" y="60" width="20" height="20"></rect>
                <rect id="Rectangle-1" x="60" y="60" width="20" height="20"></rect>
                <rect id="Rectangle-1" x="80" y="60" width="20" height="20"></rect>
                <rect id="Rectangle-1" x="140" y="0" width="20" height="20"></rect>
            </g>
        </g>
        <g id="Vertical-Grid" sketch:type="MSLayerGroup" stroke="#7EC486" stroke-linecap="square">
            <path d="M0.5,0.464396285 L0.5,299.535604" id="Line" sketch:type="MSShapeGroup"></path>
            <path d="M20.5,0.464396285 L20.5,299.535604" id="Line" sketch:type="MSShapeGroup"></path>
            <path d="M40.5,0.464396285 L40.5,299.535604" id="Line" sketch:type="MSShapeGroup"></path>
            <path d="M60.5,0.464396285 L60.5,299.535604" id="Line" sketch:type="MSShapeGroup"></path>
            <path d="M80.5,0.464396285 L80.5,299.535604" id="Line" sketch:type="MSShapeGroup"></path>
            <path d="M100.5,0.464396285 L100.5,299.535604" id="Line" sketch:type="MSShapeGroup"></path>
            <path d="M120.5,0.464396285 L120.5,299.535604" id="Line" sketch:type="MSShapeGroup"></path>
            <path d="M140.5,0.464396285 L140.5,299.535604" id="Line" sketch:type="MSShapeGroup"></path>
            <path d="M160.5,0.464396285 L160.5,299.535604" id="Line" sketch:type="MSShapeGroup"></path>
            <path d="M180.5,0.464396285 L180.5,299.535604" id="Line" sketch:type="MSShapeGroup"></path>
            <path d="M200.5,0.464396285 L200.5,299.535604" id="Line" sketch:type="MSShapeGroup"></path>
            <path d="M220.5,0.464396285 L220.5,299.535604" id="Line" sketch:type="MSShapeGroup"></path>
            <path d="M240.5,0.464396285 L240.5,299.535604" id="Line" sketch:type="MSShapeGroup"></path>
            <path d="M260.5,0.464396285 L260.5,299.535604" id="Line" sketch:type="MSShapeGroup"></path>
            <path d="M280.5,0.464396285 L280.5,299.535604" id="Line" sketch:type="MSShapeGroup"></path>
            <path d="M300.5,0.464396285 L300.5,299.535604" id="Line" sketch:type="MSShapeGroup"></path>
            <path d="M320.5,0.464396285 L320.5,299.535604" id="Line" sketch:type="MSShapeGroup"></path>
            <path d="M340.5,0.464396285 L340.5,299.535604" id="Line" sketch:type="MSShapeGroup"></path>
        </g>
        <g id="Horizontal-Grid" sketch:type="MSLayerGroup" transform="translate(180.500000, 150.500000) rotate(-270.000000) translate(-180.500000, -150.500000) translate(30.000000, -30.000000)" stroke="#7EC486" stroke-linecap="square">
            <path d="M0.5,0.558823529 L0.5,360.441176" id="Line" sketch:type="MSShapeGroup"></path>
            <path d="M20.5,0.558823529 L20.5,360.441176" id="Line" sketch:type="MSShapeGroup"></path>
            <path d="M40.5,0.558823529 L40.5,360.441176" id="Line" sketch:type="MSShapeGroup"></path>
            <path d="M60.5,0.558823529 L60.5,360.441176" id="Line" sketch:type="MSShapeGroup"></path>
            <path d="M80.5,0.558823529 L80.5,360.441176" id="Line" sketch:type="MSShapeGroup"></path>
            <path d="M100.5,0.558823529 L100.5,360.441176" id="Line" sketch:type="MSShapeGroup"></path>
            <path d="M120.5,0.558823529 L120.5,360.441176" id="Line" sketch:type="MSShapeGroup"></path>
            <path d="M140.5,0.558823529 L140.5,360.441176" id="Line" sketch:type="MSShapeGroup"></path>
            <path d="M160.5,0.558823529 L160.5,360.441176" id="Line" sketch:type="MSShapeGroup"></path>
            <path d="M180.5,0.558823529 L180.5,360.441176" id="Line" sketch:type="MSShapeGroup"></path>
            <path d="M200.5,0.558823529 L200.5,360.441176" id="Line" sketch:type="MSShapeGroup"></path>
            <path d="M220.5,0.558823529 L220.5,360.441176" id="Line" sketch:type="MSShapeGroup"></path>
            <path d="M240.5,0.558823529 L240.5,360.441176" id="Line" sketch:type="MSShapeGroup"></path>
            <path d="M260.5,0.558823529 L260.5,360.441176" id="Line" sketch:type="MSShapeGroup"></path>
            <path d="M280.5,0.558823529 L280.5,360.441176" id="Line" sketch:type="MSShapeGroup"></path>
        </g>
    </g>
</svg>