<?xml version="1.0" encoding="UTF-8" standalone="no"?>
<svg
   xmlns:sketch="http://www.bohemiancoding.com/sketch/ns"
   xmlns:dc="http://purl.org/dc/elements/1.1/"
   xmlns:cc="http://creativecommons.org/ns#"
   xmlns:rdf="http://www.w3.org/1999/02/22-rdf-syntax-ns#"
   xmlns:svg="http://www.w3.org/2000/svg"
   xmlns="http://www.w3.org/2000/svg"
   xmlns:sodipodi="http://sodipodi.sourceforge.net/DTD/sodipodi-0.dtd"
   xmlns:inkscape="http://www.inkscape.org/namespaces/inkscape"
   width="1400px"
   height="800px"
   viewBox="0 0 1400 800"
   version="1.1"
   id="svg64"
   sodipodi:docname="mountain_path_with_coderetreat.svg"
   inkscape:version="0.92.4 (unknown)">
  <metadata
     id="metadata68">
    <rdf:RDF>
      <cc:Work
         rdf:about="">
        <dc:format>image/svg+xml</dc:format>
        <dc:type
           rdf:resource="http://purl.org/dc/dcmitype/StillImage" />
      </cc:Work>
    </rdf:RDF>
  </metadata>
  <sodipodi:namedview
     pagecolor="#ffffff"
     bordercolor="#666666"
     borderopacity="1"
     objecttolerance="10"
     gridtolerance="10"
     guidetolerance="10"
     inkscape:pageopacity="0"
     inkscape:pageshadow="2"
     inkscape:window-width="1366"
     inkscape:window-height="744"
     id="namedview66"
     showgrid="false"
     inkscape:zoom="0.7525"
     inkscape:cx="594.19009"
     inkscape:cy="384.6935"
     inkscape:window-x="0"
     inkscape:window-y="24"
     inkscape:window-maximized="1"
     inkscape:current-layer="mountain_path" />
  <title
     id="title2">mountain_path</title>
  <description>Created with Sketch (http://www.bohemiancoding.com/sketch)</description>
  <defs
     id="defs13">
    <path
       id="path-1"
       d="M0,0 L22.3593532,0 L22.3593532,14.9062355 L0,14.9062355 L0,0 Z" />
    <path
       id="path-3"
       d="M0,0 L11.1796766,7.45311773 L0,14.9062355" />
    <path
       id="path-5"
       d="M0,0 L14.0922524,0 L14.0922524,9.37850194 L0,9.37850194 L0,0 Z" />
    <path
       id="path-7"
       d="M0,0 L7.04612619,4.68925097 L0,9.37850194" />
    <path
       id="path-9"
       d="M0,0 L9,0 L9,6 L0,6 L0,0 Z" />
    <path
       id="path-11"
       d="M0,0 L4,3 L0,6" />
    <path
       id="path-13"
       d="M0,0 L5,0 L5,4 L0,4 L0,0 Z" />
    <path
       id="path-15"
       d="M0,0 L3,2 L0,4" />
    <path
       d="M36,18 L72,18 L72,36 L36,18 Z M36,18 L36,36 L8.52651283e-15,36 L36,18 Z M36,18 L1.56319402e-14,18 L1.56319402e-14,-1.7408297e-14 L36,18 Z M36,18 L36,2.52242671e-14 L72,2.52242671e-14 L36,18 Z"
       id="path-17" />
  </defs>
  <g
     id="Page-1"
     stroke="none"
     stroke-width="1"
     fill="none"
     fill-rule="evenodd"
     sketch:type="MSPage">
    <g
       id="mountain_path"
       sketch:type="MSArtboardGroup">
      <rect
         id="Sky"
         fill="#8CDDEE"
         sketch:type="MSShapeGroup"
         x="0"
         y="0"
         width="1404"
         height="800" />
      <g
         id="Mountain-1"
         sketch:type="MSLayerGroup"
         transform="translate(0.000000, 206.000000)">
        <path
           d="M-2.84217094e-14,245.11816 L40.9138209,165.944082 L324.229642,2.7460835 L384.351187,169.524007 L416.549079,195.885256 L462.319918,339 L-1.26160398e-06,389.175863 L-2.84217094e-14,245.11816 Z"
           id="Path-5"
           fill="#1A3238"
           sketch:type="MSShapeGroup" />
        <path
           d="M170.774101,91.1221318 L246.874399,86.0696581 L292.645237,97.109722 L350.061829,72.9647443 L324.478989,-0.366843715 L170.774101,91.1221318 Z"
           id="Path-6"
           fill="#F4F1E7"
           sketch:type="MSShapeGroup" />
        <path
           d="M379.167753,156.768177 C379.167753,156.768177 348.924777,153.923027 346.18702,149.336976 C343.449263,144.750925 322.131156,144.653809 316.973419,146.995393 C311.815682,149.336976 304.282776,151.022125 297.973443,151.022125 C291.664109,151.022125 267.866268,139.420316 267.866268,139.420316"
           id="Path-112"
           stroke="#574742"
           stroke-width="2"
           sketch:type="MSShapeGroup" />
        <path
           d="M200,140 C200,140 207.764059,137.540006 217.035177,137.540008 C222.767478,137.540009 234.88879,129.823633 234.88879,129.823633 C234.88879,129.823633 241.397504,126.093657 243.672351,126.093657 C249.632076,126.093656 265.194156,116.741213 269.052277,116.741214"
           id="Path-113"
           stroke="#574742"
           sketch:type="MSShapeGroup"
           transform="translate(234.500000, 128.500000) scale(-1, 1) translate(-234.500000, -128.500000) " />
        <path
           d="M85.6649858,140.074834 L185.182448,128.556609 L218.453518,136.985056 L190.993818,106.706533 L151.840993,101.551481 L85.6649858,140.074834 Z"
           id="Path-7"
           fill="#F4F1E7"
           sketch:type="MSShapeGroup" />
      </g>
      <path
         d="M226.826799,465.371617 C226.826799,465.371617 267.241597,454.949595 279.82176,442.930542 C292.401925,430.911492 340.571646,439.847997 349.445202,435.038938 C358.318757,430.22988 399.375599,414.723634 407.767176,417.045434 C416.158754,419.367234 420.926444,414.59954 420.926444,414.59954"
         id="Path-111"
         stroke="#734D41"
         stroke-width="3"
         sketch:type="MSShapeGroup" />
      <g
         id="Midground"
         sketch:type="MSLayerGroup"
         transform="translate(0.000000, 465.000000)">
        <path
           d="M2.61763944e-10,47.9999997 C2.61763944e-10,47.9999997 99.9559402,-0.00376782319 258.379852,-0.00376782319 C416.803764,-0.00376782319 563.126997,87.3366556 679.18866,188.111233 C769.641353,266.649938 856.339009,335 856.339009,335 L0,335 L2.61763944e-10,47.9999997 Z"
           id="Path-3"
           fill="#57B26E"
           sketch:type="MSShapeGroup" />
        <path
           d="M161.718548,5.73247637 C161.718548,5.73247637 231.994529,36.9099175 230.737418,44.1628014 C230.402385,46.0957704 222.485922,47.6441207 210.7967,50.1571366 C178.625635,57.0734526 119.025599,66.5996265 119.025681,75.6478058 C119.025979,108.646227 253.475021,167.209178 277.827827,199.430787 C302.180633,231.652408 314.578759,195.88 286.381111,167.136444 C262.317387,142.606846 168.220219,115.750245 140.630265,90.2876755 C135.890567,85.9134425 131.414306,81.9020145 131.413489,77.6060044 C131.411502,67.1582326 238.562467,52.5855328 238.562467,44.1628014 C238.562467,35.74007 167.386158,5.14078678 167.386158,5.14078678 L161.718548,5.73247637 Z"
           id="Path-4"
           fill="#683727"
           sketch:type="MSShapeGroup" />
      </g>
      <g
         id="Foreground"
         sketch:type="MSLayerGroup"
         transform="translate(0.000000, 494.000000)">
        <path
           d="M-2.84217094e-14,272.06544 C-2.84217094e-14,272.06544 344.714039,-48.404057 813.664919,84.0534644 C960.024841,125.393566 1021.61328,159.406883 1404,126.90557 L1404,303.999988 L8.64838171e-07,303.999988 L-2.84217094e-14,272.06544 Z"
           id="Path-1"
           fill="#7EC486"
           sketch:type="MSShapeGroup" />
        <path
           d="M187.197114,306 C187.197114,306 293.68428,269.368744 325.451921,187.797722 C357.219566,106.226702 342.835069,86.8202974 342.835069,86.8202974 L384.292802,76.1222059 C384.292802,76.1222059 418.028098,107.168343 425.873252,187.797722 C433.718408,268.427101 407.017167,306 407.017167,306"
           id="Path-2"
           fill="#683727"
           sketch:type="MSShapeGroup" />
      </g>
      <g
         id="Cloud"
         sketch:type="MSLayerGroup"
         transform="translate(887.000000, -123.000000)"
         fill="#F4F1E7">
        <circle
           id="Oval-1"
           sketch:type="MSShapeGroup"
           cx="478"
           cy="152"
           r="126" />
        <circle
           id="circle30"
           sketch:type="MSShapeGroup"
           cx="323"
           cy="171"
           r="126" />
        <circle
           id="circle32"
           sketch:type="MSShapeGroup"
           cx="153"
           cy="126"
           r="126" />
        <path
           d="M61,238 C94.6893714,238 122,221.882252 122,202 C122,182.117748 94.6893714,166 61,166 C27.3106286,166 0,182.117748 0,202 C0,221.882252 27.3106286,238 61,238 Z"
           id="Oval-4"
           sketch:type="MSShapeGroup" />
      </g>
      <g
         id="Tent"
         sketch:type="MSLayerGroup"
         transform="translate(1096.000000, 526.000000)">
        <path
           d="M45.7987173,131.444279 L129.34611,102.106976 L129.346108,14.5823408 L45.7987173,131.444279 Z"
           id="Path-103"
           fill="#1A3238"
           sketch:type="MSShapeGroup" />
        <path
           d="M37.8764248,130.318073 L166.269127,169.626393 L157.366095,91.0097505 L37.8764248,130.318073 Z"
           id="path37"
           fill="#2C616E"
           sketch:type="MSShapeGroup" />
        <path
           d="M129.084953,14.6367481 L226.034465,0.410319085 L295.275412,111.066126 L165.265828,173.036077 L129.084953,14.6367481 Z"
           id="Path-101"
           stroke="#979797"
           fill="#2C616E"
           sketch:type="MSShapeGroup" />
        <path
           d="M46.6893189,132.218624 L0.453572756,132.218624 L129.475487,14.7252846 L46.6893189,132.218624 Z"
           id="Path-100"
           fill="#599BA8"
           sketch:type="MSShapeGroup" />
        <path
           d="M166.256042,172.618229 L129.361342,190.840144 L129.361342,14.1035563 L166.256042,172.618229 Z"
           id="Path-102"
           fill="#599BA8"
           sketch:type="MSShapeGroup" />
      </g>
      <g
         id="Fire"
         sketch:type="MSLayerGroup"
         transform="translate(983.000000, 603.000000)">
        <g
           id="Log"
           transform="translate(0.000000, 58.000000)"
           sketch:type="MSShapeGroup">
          <path
             d="M4.88773846,22.8192487 L56.1549314,-0.179858885 C56.1549314,-0.179858885 64.2202038,1.51086302 64.2202046,9.66331491 L64.2202054,18.6254648 L5.87443346,47.9396846"
             id="Path-105"
             fill="#683727" />
          <path
             d="M5,48 C7.76142389,48 10,42.4035597 10,35.5 C10,28.5964403 7.76142389,23 5,23 C2.23857611,23 0,28.5964403 0,35.5 C0,42.4035597 2.23857611,48 5,48 Z"
             id="Oval-6"
             fill="#CF7B60" />
        </g>
        <g
           id="g50"
           transform="translate(45.000000, 89.000000) scale(-1, 1) translate(-45.000000, -89.000000) translate(13.000000, 65.000000)"
           sketch:type="MSShapeGroup">
          <path
             d="M4.88773846,22.8192487 L56.1549314,-0.179858885 C56.1549314,-0.179858885 64.2202038,1.51086302 64.2202046,9.66331491 L64.2202054,18.6254648 L5.87443346,47.9396846"
             id="path46"
             fill="#683727" />
          <path
             d="M5,48 C7.76142389,48 10,42.4035597 10,35.5 C10,28.5964403 7.76142389,23 5,23 C2.23857611,23 0,28.5964403 0,35.5 C0,42.4035597 2.23857611,48 5,48 Z"
             id="path48"
             fill="#CF7B60" />
        </g>
        <g
           id="Flames"
           transform="translate(5.000000, 0.000000)"
           sketch:type="MSShapeGroup">
          <path
             d="M1.74013114,27.8809787 C-2.46704102,35.1655884 3.3688354,41.0620787 3.3688354,41.0620787 C3.3688354,41.0620787 9.68050941,37.8652567 9.68050989,30.7392299 C9.68051035,23.6132032 5.27017834,15.8510198 5.27017834,15.8510198 C5.27017834,15.8510198 5.94730333,20.596369 1.74013114,27.8809787 Z"
             id="Path-107"
             fill="#FF1515" />
          <path
             d="M33.5447497,89.7001713 C11.7200317,89.7001648 0.643601746,67.3650153 0.643600043,58.6220013 C0.643597968,49.8789872 15.3732804,44.6433873 15.3732811,30.8932548 C15.3732812,17.1431224 40.8536857,-0.403671654 40.8536857,-0.403671654 C40.8536857,-0.403671654 33.2968258,9.98974819 40.391864,25.8034941 C47.4869019,41.6172405 47.3264813,51.8235006 47.3264813,51.8235006 C47.3264813,51.8235006 46.48791,61.1936201 52.8756335,41.1845871 C59.2633568,21.1755539 52.6593065,13.2929875 52.6593065,13.2929875 C52.6593065,13.2929875 65.7896276,27.023679 65.7896265,50.6324867 C65.7896248,74.2412945 55.3694677,89.7001779 33.5447497,89.7001713 Z"
             id="Path-108"
             fill="#FF1515" />
          <path
             d="M30.2014775,89 C16.8009868,88.999996 10.000001,75.3664685 10,70.0296731 C9.99999873,64.6928777 19.0441006,61.4970319 19.044101,53.1038573 C19.0441011,44.7106827 34.6892023,34 34.6892023,34 C34.6892023,34 30.0492509,40.3442143 34.4056414,49.9970326 C38.7620317,59.6498512 38.6635326,65.879822 38.6635326,65.879822 C38.6635326,65.879822 38.1486454,71.5994068 42.070741,59.3857567 C45.9928364,47.1721064 41.9379151,42.3605341 41.9379151,42.3605341 C41.9379151,42.3605341 50.0000007,50.7418418 50,65.152819 C49.999999,79.5637962 43.6019682,89.000004 30.2014775,89 Z"
             id="path54"
             fill="#F4F337"
             transform="translate(30.000000, 61.500000) scale(-1, 1) translate(-30.000000, -61.500000) " />
          <path
             d="M51.7401311,47.8809787 C47.532959,55.1655884 53.3688354,61.0620787 53.3688354,61.0620787 C53.3688354,61.0620787 59.6805094,57.8652567 59.6805099,50.7392299 C59.6805103,43.6132032 55.2701783,35.8510198 55.2701783,35.8510198 C55.2701783,35.8510198 55.9473033,40.596369 51.7401311,47.8809787 Z"
             id="path56"
             fill="#F4F337" />
        </g>
      </g>
      <path
         d="M702,693.382723 L751.434906,738.617277 L652.565094,738.617277 L702,693.382723 Z M701.676896,710.830337 L732.048668,738.617277 L671.305124,738.617277 L701.676896,710.830337 Z"
         id="Triangle-1"
         fill="#1A3238"
         sketch:type="MSShapeGroup"
         transform="translate(702.000000, 716.000000) rotate(-180.000000) translate(-702.000000, -716.000000) " />
      <path
         d="m 563.19279,261.39573 h -64.78774 v 51.69979 h 64.78774 v 19.76756 h -65.59327 c -4.7565,0 -8.78412,-1.81624 -12.08298,-5.44875 -3.29885,-3.63252 -4.94826,-8.06751 -4.94826,-13.30509 v -53.72723 c 0,-5.23759 1.64941,-9.67258 4.94826,-13.30509 3.29886,-3.63251 7.32648,-5.44875 12.08298,-5.44875 h 65.59327 z m 28.07852,-2.02744 h 34.29263 c 4.60306,0 8.53478,1.81624 11.79528,5.44875 3.26049,3.63252 4.89073,7.94079 4.89073,12.92495 v 36.74739 c 0,4.98416 -1.63024,9.29243 -4.89073,12.92495 -3.2605,3.63251 -7.19222,5.44875 -11.79528,5.44875 h -34.29263 c -4.52634,0 -8.43889,-1.81624 -11.73774,-5.44875 -3.29886,-3.63252 -4.94826,-7.94079 -4.94826,-12.92495 v -36.74739 c 0,-4.98416 1.6494,-9.29243 4.94826,-12.92495 3.29885,-3.63251 7.2114,-5.44875 11.73774,-5.44875 z m 0.92061,19.38742 v 34.71995 h 32.45141 v -34.71995 z m 108.9769,-43.4633 h 17.60661 v 97.57067 h -51.09371 c -4.60306,0 -8.53478,-1.81624 -11.79528,-5.44875 -3.2605,-3.63252 -4.89073,-7.94079 -4.89073,-12.92495 v -36.74739 c 0,-4.98416 1.63023,-9.29243 4.89073,-12.92495 3.2605,-3.63251 7.19222,-5.44875 11.79528,-5.44875 h 33.4871 z m -32.45141,43.4633 v 34.71995 h 32.45141 v -34.71995 z m 113.2347,-19.38742 c 4.60306,0 8.53478,1.81624 11.79528,5.44875 3.2605,3.63252 4.89073,7.94079 4.89073,12.92495 v 28.13076 h -50.05803 v 7.60291 h 50.05803 v 19.38742 h -50.97863 c -4.52635,0 -8.43889,-1.81624 -11.73775,-5.44875 -3.29885,-3.63252 -4.94826,-7.94079 -4.94826,-12.92495 v -36.74739 c 0,-4.98416 1.64941,-9.29243 4.94826,-12.92495 3.29886,-3.63251 7.2114,-5.44875 11.73775,-5.44875 z m -33.37202,29.52463 h 32.45141 v -10.13721 h -32.45141 z m 78.94208,-29.52463 h 36.8243 v 19.38742 H 828.3277 v 54.10737 h -17.60661 v -55.12109 c 0,-4.98416 1.64941,-9.29243 4.94826,-12.92495 3.29886,-3.63251 7.24976,-5.44875 11.85282,-5.44875 z m 94.59241,0 c 4.60306,0 8.53478,1.81624 11.79528,5.44875 3.26048,3.63252 4.89073,7.94079 4.89073,12.92495 v 28.13076 h -50.05803 v 7.60291 h 50.05803 v 19.38742 h -50.97864 c -4.52634,0 -8.43888,-1.81624 -11.73774,-5.44875 -3.29885,-3.63252 -4.94826,-7.94079 -4.94826,-12.92495 v -36.74739 c 0,-4.98416 1.64941,-9.29243 4.94826,-12.92495 3.29886,-3.63251 7.2114,-5.44875 11.73774,-5.44875 z m -33.37202,29.52463 h 32.45141 v -10.13721 h -32.45141 z m 104.604,-10.13721 h -24.74127 v 34.71995 h 24.74127 v 19.38742 h -25.54687 c -4.6797,0 -8.6498,-1.81624 -11.91033,-5.44875 -3.26048,-3.63252 -4.89073,-7.94079 -4.89073,-12.92495 v -76.9161 h 17.60666 v 21.79501 h 24.74127 z m 26.23734,-19.38742 h 36.8243 v 19.38742 h -36.0188 v 54.10737 h -17.6066 v -55.12109 c 0,-4.98416 1.6494,-9.29243 4.9483,-12.92495 3.2988,-3.63251 7.2498,-5.44875 11.8528,-5.44875 z m 94.5924,0 c 4.603,0 8.5348,1.81624 11.7953,5.44875 3.2605,3.63252 4.8907,7.94079 4.8907,12.92495 v 28.13076 h -50.058 v 7.60291 h 50.058 v 19.38742 h -50.9786 c -4.5263,0 -8.4389,-1.81624 -11.7378,-5.44875 -3.2988,-3.63252 -4.9482,-7.94079 -4.9482,-12.92495 v -36.74739 c 0,-4.98416 1.6494,-9.29243 4.9482,-12.92495 3.2989,-3.63251 7.2115,-5.44875 11.7378,-5.44875 z m -33.372,29.52463 h 32.4514 v -10.13721 h -32.4514 z m 113.1196,-29.52463 c 4.6031,0 8.5348,1.81624 11.7953,5.44875 3.2605,3.63252 4.8907,7.94079 4.8907,12.92495 v 55.12109 h -50.9786 c -4.603,0 -8.5348,-1.81624 -11.7953,-5.44875 -3.2605,-3.63252 -4.8907,-7.94079 -4.8907,-12.92495 v -28.13076 h 50.058 v -7.60291 h -50.058 v -19.38742 z m -0.9206,54.10737 v -10.13721 h -32.4514 v 10.13721 z m 72.2677,-34.71995 h -24.7413 v 34.71995 h 24.7413 v 19.38742 h -25.5469 c -4.6797,0 -8.6498,-1.81624 -11.9103,-5.44875 -3.2605,-3.63252 -4.8907,-7.94079 -4.8907,-12.92495 v -76.9161 h 17.6066 v 21.79501 h 24.7413 z"
         id="Global-Day-of"
         sketch:type="MSShapeGroup"
         inkscape:connector-curvature="0"
         style="fill:#1a3238;stroke-width:1.25786865"
         sodipodi:nodetypes="cccccssssssccsssssssssssssccccccccsssssscccccccssscccccssssssscccccscccccsssssscccccsssssssccccccccccssscccccscccccsssssscccccssssssscccccssscssscccccsccccccccccsssccccc" />
    </g>
  </g>
</svg>
