<?xml version="1.0" encoding="UTF-8" standalone="no"?>
<svg width="1400px" height="800px" viewBox="0 0 1400 800" version="1.1" xmlns="http://www.w3.org/2000/svg" xmlns:xlink="http://www.w3.org/1999/xlink" xmlns:sketch="http://www.bohemiancoding.com/sketch/ns">
    <title>mountain_path</title>
    <description>Created with Sketch (http://www.bohemiancoding.com/sketch)</description>
    <defs>
        <path id="path-1" d="M0,0 L22.3593532,0 L22.3593532,14.9062355 L0,14.9062355 L0,0 Z"></path>
        <path id="path-3" d="M0,0 L11.1796766,7.45311773 L0,14.9062355"></path>
        <path id="path-5" d="M0,0 L14.0922524,0 L14.0922524,9.37850194 L0,9.37850194 L0,0 Z"></path>
        <path id="path-7" d="M0,0 L7.04612619,4.68925097 L0,9.37850194"></path>
        <path id="path-9" d="M0,0 L9,0 L9,6 L0,6 L0,0 Z"></path>
        <path id="path-11" d="M0,0 L4,3 L0,6"></path>
        <path id="path-13" d="M0,0 L5,0 L5,4 L0,4 L0,0 Z"></path>
        <path id="path-15" d="M0,0 L3,2 L0,4"></path>
        <path d="M36,18 L72,18 L72,36 L36,18 Z M36,18 L36,36 L8.52651283e-15,36 L36,18 Z M36,18 L1.56319402e-14,18 L1.56319402e-14,-1.7408297e-14 L36,18 Z M36,18 L36,2.52242671e-14 L72,2.52242671e-14 L36,18 Z" id="path-17"></path>
    </defs>
    <g id="Page-1" stroke="none" stroke-width="1" fill="none" fill-rule="evenodd" sketch:type="MSPage">
        <g id="mountain_path" sketch:type="MSArtboardGroup">
            <rect id="Sky" fill="#8CDDEE" sketch:type="MSShapeGroup" x="0" y="0" width="1404" height="800"></rect>
            <g id="Mountain-1" sketch:type="MSLayerGroup" transform="translate(0.000000, 206.000000)">
                <path d="M-2.84217094e-14,245.11816 L40.9138209,165.944082 L324.229642,2.7460835 L384.351187,169.524007 L416.549079,195.885256 L462.319918,339 L-1.26160398e-06,389.175863 L-2.84217094e-14,245.11816 Z" id="Path-5" fill="#1A3238" sketch:type="MSShapeGroup"></path>
                <path d="M170.774101,91.1221318 L246.874399,86.0696581 L292.645237,97.109722 L350.061829,72.9647443 L324.478989,-0.366843715 L170.774101,91.1221318 Z" id="Path-6" fill="#F4F1E7" sketch:type="MSShapeGroup"></path>
                <path d="M379.167753,156.768177 C379.167753,156.768177 348.924777,153.923027 346.18702,149.336976 C343.449263,144.750925 322.131156,144.653809 316.973419,146.995393 C311.815682,149.336976 304.282776,151.022125 297.973443,151.022125 C291.664109,151.022125 267.866268,139.420316 267.866268,139.420316" id="Path-112" stroke="#574742" stroke-width="2" sketch:type="MSShapeGroup"></path>
                <path d="M200,140 C200,140 207.764059,137.540006 217.035177,137.540008 C222.767478,137.540009 234.88879,129.823633 234.88879,129.823633 C234.88879,129.823633 241.397504,126.093657 243.672351,126.093657 C249.632076,126.093656 265.194156,116.741213 269.052277,116.741214" id="Path-113" stroke="#574742" sketch:type="MSShapeGroup" transform="translate(234.500000, 128.500000) scale(-1, 1) translate(-234.500000, -128.500000) "></path>
                <path d="M85.6649858,140.074834 L185.182448,128.556609 L218.453518,136.985056 L190.993818,106.706533 L151.840993,101.551481 L85.6649858,140.074834 Z" id="Path-7" fill="#F4F1E7" sketch:type="MSShapeGroup"></path>
            </g>
            <path d="M226.826799,465.371617 C226.826799,465.371617 267.241597,454.949595 279.82176,442.930542 C292.401925,430.911492 340.571646,439.847997 349.445202,435.038938 C358.318757,430.22988 399.375599,414.723634 407.767176,417.045434 C416.158754,419.367234 420.926444,414.59954 420.926444,414.59954" id="Path-111" stroke="#734D41" stroke-width="3" sketch:type="MSShapeGroup"></path>
            <g id="Midground" sketch:type="MSLayerGroup" transform="translate(0.000000, 465.000000)">
                <path d="M2.61763944e-10,47.9999997 C2.61763944e-10,47.9999997 99.9559402,-0.00376782319 258.379852,-0.00376782319 C416.803764,-0.00376782319 563.126997,87.3366556 679.18866,188.111233 C769.641353,266.649938 856.339009,335 856.339009,335 L0,335 L2.61763944e-10,47.9999997 Z" id="Path-3" fill="#57B26E" sketch:type="MSShapeGroup"></path>
                <path d="M161.718548,5.73247637 C161.718548,5.73247637 231.994529,36.9099175 230.737418,44.1628014 C230.402385,46.0957704 222.485922,47.6441207 210.7967,50.1571366 C178.625635,57.0734526 119.025599,66.5996265 119.025681,75.6478058 C119.025979,108.646227 253.475021,167.209178 277.827827,199.430787 C302.180633,231.652408 314.578759,195.88 286.381111,167.136444 C262.317387,142.606846 168.220219,115.750245 140.630265,90.2876755 C135.890567,85.9134425 131.414306,81.9020145 131.413489,77.6060044 C131.411502,67.1582326 238.562467,52.5855328 238.562467,44.1628014 C238.562467,35.74007 167.386158,5.14078678 167.386158,5.14078678 L161.718548,5.73247637 Z" id="Path-4" fill="#683727" sketch:type="MSShapeGroup"></path>
            </g>
            <g id="Midground-Flags-1" sketch:type="MSLayerGroup" transform="translate(146.000000, 530.000000)">
                <g id="Flag" transform="translate(125.856609, 43.106841)" sketch:type="MSShapeGroup">
                    <g id="Flag_of_the_People's_Republic_of_China" transform="translate(3.052034, 0.856690)">
                        <rect id="Rectangle" fill="#DE2910" x="0" y="0" width="26.2710618" height="17.5140412"></rect>
                        <g id="s-link" transform="translate(1.751404, 1.751404)" fill="#FFDE00">
                            <path d="M2.62710618,2.67430522e-11 L4.17128043,4.75247974 L0.128579754,1.8152857 L5.1256326,1.8152857 L1.08293192,4.75247974 L2.62710618,2.67430522e-11 Z" id="s"></path>
                        </g>
                        <g id="s-link" transform="translate(8.757021, 1.751404) rotate(239.036244) translate(-8.757021, -1.751404) translate(7.881319, 0.875702)" fill="#FFDE00">
                            <path d="M0.875702059,8.91442475e-12 L1.39042681,1.58415991 L0.0428599179,0.605095233 L1.7085442,0.605095233 L0.360977306,1.58415991 L0.875702059,8.91442475e-12 Z" id="s"></path>
                        </g>
                        <g id="s-link" transform="translate(10.508425, 3.502808) rotate(261.869898) translate(-10.508425, -3.502808) translate(9.632723, 2.627106)" fill="#FFDE00">
                            <path d="M0.875702059,8.91442475e-12 L1.39042681,1.58415991 L0.0428599179,0.605095233 L1.7085442,0.605095233 L0.360977306,1.58415991 L0.875702059,8.91442475e-12 Z" id="s"></path>
                        </g>
                        <g id="s-link" transform="translate(10.508425, 6.129914) rotate(-74.054604) translate(-10.508425, -6.129914) translate(9.632723, 5.254212)" fill="#FFDE00">
                            <path d="M0.875702059,8.91442475e-12 L1.39042681,1.58415991 L0.0428599179,0.605095233 L1.7085442,0.605095233 L0.360977306,1.58415991 L0.875702059,8.91442475e-12 Z" id="s"></path>
                        </g>
                        <g id="s-link" transform="translate(8.757021, 7.881319) rotate(-51.340192) translate(-8.757021, -7.881319) translate(7.881319, 7.005616)" fill="#FFDE00">
                            <path d="M0.875702059,8.91442475e-12 L1.39042681,1.58415991 L0.0428599179,0.605095233 L1.7085442,0.605095233 L0.360977306,1.58415991 L0.875702059,8.91442475e-12 Z" id="s"></path>
                        </g>
                    </g>
                    <path d="M1,0.109462757 L1,46.3027464" id="Line" stroke="#4A4A4A" stroke-width="2" stroke-linecap="square"></path>
                </g>
                <g id="Flag" transform="translate(66.124326, 22.041089)">
                    <g id="Clipped" transform="translate(2.597592, 0.729130)">
                        <mask id="mask-2" sketch:name="Shape" fill="white">
                            <use xlink:href="#path-1"></use>
                        </mask>
                        <g id="Shape"></g>
                        <g id="Group" mask="url(#mask-2)">
                            <path d="M0,0 L0,14.9062355 L22.3593532,14.9062355 L22.3593532,0 L0,0 Z" id="Shape" fill="#002395" sketch:type="MSShapeGroup"></path>
                            <path d="M0,0 L0,7.45311773 L22.3593532,7.45311773 L22.3593532,0 L0,0 Z" id="Shape" fill="#DE3831" sketch:type="MSShapeGroup"></path>
                            <g>
                                <path d="M0,0 L11.1796766,7.45311773 L0,14.9062355 M11.1796766,7.45311773 L22.3593532,7.45311773" id="W" stroke="#FFFFFF" stroke-width="2" fill="#000000" sketch:type="MSShapeGroup"></path>
                                <g id="Clipped">
                                    <mask id="mask-4" sketch:name="X" fill="white">
                                        <use xlink:href="#path-3"></use>
                                    </mask>
                                    <g id="X"></g>
                                    <g id="X-link" mask="url(#mask-4)" stroke="#FFB612" stroke-width="2" fill="#000000" sketch:type="MSShapeGroup">
                                        <path d="M0,0 L11.1796766,7.45311773 L0,14.9062355" id="X"></path>
                                    </g>
                                </g>
                            </g>
                            <g id="W-link" stroke="#007A4D" stroke-width="1.2" sketch:type="MSShapeGroup">
                                <path d="M0,0 L11.1796766,7.45311773 L0,14.9062355 M11.1796766,7.45311773 L22.3593532,7.45311773" id="W"></path>
                            </g>
                        </g>
                    </g>
                    <path d="M1,0.0931639716 L1,39.40836" id="Line" stroke="#4A4A4A" stroke-width="2" stroke-linecap="square" sketch:type="MSShapeGroup"></path>
                </g>
                <g id="Flag" transform="translate(94.071287, 29.725179)" sketch:type="MSShapeGroup">
                    <g id="Flag_of_Israel" transform="translate(2.909451, 0.816667)">
                        <rect id="Rectangle" fill="#FFFFFF" x="0" y="0" width="22.9567675" height="16.6958309"></rect>
                        <rect id="Rectangle" fill="#0038B8" x="0" y="1.56523415" width="22.9567675" height="2.60872358"></rect>
                        <rect id="Rectangle" fill="#0038B8" x="0" y="12.5218732" width="22.9567675" height="2.60872358"></rect>
                        <g id="triangle-link" transform="translate(8.869660, 5.321796)" stroke="#0038B8" stroke-width="5.5" fill="#000000" fill-opacity="0">
                            <path d="M2.60872358,-0.0147148864 L-0.0247161198,4.54653648 L5.24216328,4.54653648 L2.60872358,-0.0147148864 Z" id="triangle"></path>
                        </g>
                        <g id="triangle-link" transform="translate(11.478384, 9.078358) rotate(180.000000) translate(-11.478384, -9.078358) translate(8.869660, 6.782681)" stroke="#0038B8" stroke-width="5.5" fill="#000000" fill-opacity="0">
                            <path d="M2.60872358,-0.0147148864 L-0.0247161198,4.54653648 L5.24216328,4.54653648 L2.60872358,-0.0147148864 Z" id="triangle"></path>
                        </g>
                    </g>
                    <path d="M0.945459904,0.104348943 L0.945459904,44.139603" id="Line" stroke="#4A4A4A" stroke-width="2" stroke-linecap="square"></path>
                </g>
                <g id="Flag" transform="translate(44.065054, 13.683480)" sketch:type="MSShapeGroup">
                    <g id="Flag_of_the_People's_Republic_of_China" transform="translate(2.057760, 0.334554)">
                        <rect id="Rectangle" fill="#DE2910" x="0" y="0" width="18.243704" height="12.1413514"></rect>
                        <g id="s-link" transform="translate(1.216247, 1.214135)" fill="#FFDE00">
                            <path d="M1.8243704,1.85393922e-11 L2.89670841,3.29458666 L0.0892910605,1.2584201 L3.55944974,1.2584201 L0.75203239,3.29458666 L1.8243704,1.85393922e-11 Z" id="s"></path>
                        </g>
                        <g id="s-link" transform="translate(6.081235, 1.214135) rotate(239.036244) translate(-6.081235, -1.214135) translate(5.473111, 0.607068)" fill="#FFDE00">
                            <path d="M0.608123466,6.17983442e-12 L0.965569469,1.09819555 L0.0297636868,0.419473368 L1.18648325,0.419473368 L0.250677463,1.09819555 L0.608123466,6.17983442e-12 Z" id="s"></path>
                        </g>
                        <g id="s-link" transform="translate(7.297482, 2.428270) rotate(261.869898) translate(-7.297482, -2.428270) translate(6.689358, 1.821203)" fill="#FFDE00">
                            <path d="M0.608123466,6.17983442e-12 L0.965569469,1.09819555 L0.0297636868,0.419473368 L1.18648325,0.419473368 L0.250677463,1.09819555 L0.608123466,6.17983442e-12 Z" id="s"></path>
                        </g>
                        <g id="s-link" transform="translate(7.297482, 4.249473) rotate(-74.054604) translate(-7.297482, -4.249473) translate(6.689358, 3.642405)" fill="#FFDE00">
                            <path d="M0.608123466,6.17983442e-12 L0.965569469,1.09819555 L0.0297636868,0.419473368 L1.18648325,0.419473368 L0.250677463,1.09819555 L0.608123466,6.17983442e-12 Z" id="s"></path>
                        </g>
                        <g id="s-link" transform="translate(6.081235, 5.463608) rotate(-51.340192) translate(-6.081235, -5.463608) translate(5.473111, 4.856541)" fill="#FFDE00">
                            <path d="M0.608123466,6.17983442e-12 L0.965569469,1.09819555 L0.0297636868,0.419473368 L1.18648325,0.419473368 L0.250677463,1.09819555 L0.608123466,6.17983442e-12 Z" id="s"></path>
                        </g>
                    </g>
                    <path d="M1.10182909,2.27954163 L1.10182909,34.3023559" id="Line" stroke="#4A4A4A" stroke-width="2" stroke-linecap="square"></path>
                </g>
                <g id="Flag" transform="translate(0.013548, 0.183480)">
                    <g id="Clipped" transform="translate(2.464116, -0.246094)">
                        <mask id="mask-6" sketch:name="Shape" fill="white">
                            <use xlink:href="#path-5"></use>
                        </mask>
                        <g id="Shape"></g>
                        <g id="Group" mask="url(#mask-6)">
                            <path d="M0,0 L0,9.37850194 L14.0922524,9.37850194 L14.0922524,0 L0,0 Z" id="Shape" fill="#002395" sketch:type="MSShapeGroup"></path>
                            <path d="M0,0 L0,4.68925097 L14.0922524,4.68925097 L14.0922524,0 L0,0 Z" id="Shape" fill="#DE3831" sketch:type="MSShapeGroup"></path>
                            <g>
                                <path d="M0,0 L7.04612619,4.68925097 L0,9.37850194 M7.04612619,4.68925097 L14.0922524,4.68925097" id="W" stroke="#FFFFFF" stroke-width="2" fill="#000000" sketch:type="MSShapeGroup"></path>
                                <g id="Clipped">
                                    <mask id="mask-8" sketch:name="X" fill="white">
                                        <use xlink:href="#path-7"></use>
                                    </mask>
                                    <g id="X"></g>
                                    <g id="X-link" mask="url(#mask-8)" stroke="#FFB612" stroke-width="2" fill="#000000" sketch:type="MSShapeGroup">
                                        <path d="M0,0 L7.04612619,4.68925097 L0,9.37850194" id="X"></path>
                                    </g>
                                </g>
                            </g>
                            <g id="W-link" stroke="#007A4D" stroke-width="1.2" sketch:type="MSShapeGroup">
                                <path d="M0,0 L7.04612619,4.68925097 L0,9.37850194 M7.04612619,4.68925097 L14.0922524,4.68925097" id="W"></path>
                            </g>
                        </g>
                    </g>
                    <path d="M1,2.05861564 L1,26.7944145" id="Line" stroke="#4A4A4A" stroke-width="2" stroke-linecap="square" sketch:type="MSShapeGroup"></path>
                </g>
                <g id="Flag" transform="translate(20.896871, 7.041089)" sketch:type="MSShapeGroup">
                    <g id="Flag_of_Israel" transform="translate(3.235917, -0.278398)">
                        <rect id="Rectangle" fill="#FFFFFF" x="0" y="0" width="15.3034069" height="11.111096"></rect>
                        <rect id="Rectangle" fill="#0038B8" x="0" y="1.04166525" width="15.3034069" height="1.73610875"></rect>
                        <rect id="Rectangle" fill="#0038B8" x="0" y="8.33332199" width="15.3034069" height="1.73610875"></rect>
                        <g id="triangle-link" transform="translate(5.912680, 3.541662)" stroke="#0038B8" stroke-width="5.5" fill="#000000" fill-opacity="0">
                            <path d="M1.73902351,-0.00979277496 L-0.0164762238,3.02572561 L3.49452325,3.02572561 L1.73902351,-0.00979277496 Z" id="triangle"></path>
                        </g>
                        <g id="triangle-link" transform="translate(7.651703, 6.041658) rotate(180.000000) translate(-7.651703, -6.041658) translate(5.912680, 4.513883)" stroke="#0038B8" stroke-width="5.5" fill="#000000" fill-opacity="0">
                            <path d="M1.73902351,-0.00979277496 L-0.0164762238,3.02572561 L3.49452325,3.02572561 L1.73902351,-0.00979277496 Z" id="triangle"></path>
                        </g>
                    </g>
                    <path d="M1,1.06944435 L1,30.37496" id="Line" stroke="#4A4A4A" stroke-width="2" stroke-linecap="square"></path>
                </g>
            </g>
            <g id="Midground-Flags-1" sketch:type="MSLayerGroup" transform="translate(189.000000, 466.000000)">
                <g id="Flag" transform="translate(51.000000, 18.000000)" sketch:type="MSShapeGroup">
                    <g id="Flag_of_the_People's_Republic_of_China" transform="translate(2.000000, 0.000000)">
                        <rect id="Rectangle" fill="#DE2910" x="0" y="0" width="11" height="7"></rect>
                        <g id="s-link" transform="translate(1.000000, 1.000000)" fill="#FFDE00">
                            <path d="M1,0 L1.61803399,2 L0,0.763932009 L2,0.763932009 L0.381966008,2 L1,0 Z" id="s"></path>
                        </g>
                        <g id="s-link" transform="translate(3.500000, 0.500000) rotate(239.036244) translate(-3.500000, -0.500000) translate(3.000000, 0.000000)" fill="#FFDE00">
                            <path d="M0.5,0 L0.809016996,1 L0,0.381966005 L1,0.381966005 L0.190983004,1 L0.5,0 Z" id="s"></path>
                        </g>
                        <g id="s-link" transform="translate(4.500000, 1.500000) rotate(261.869898) translate(-4.500000, -1.500000) translate(4.000000, 1.000000)" fill="#FFDE00">
                            <path d="M0.5,0 L0.809016996,1 L0,0.381966005 L1,0.381966005 L0.190983004,1 L0.5,0 Z" id="s"></path>
                        </g>
                        <g id="s-link" transform="translate(4.500000, 2.500000) rotate(-74.054604) translate(-4.500000, -2.500000) translate(4.000000, 2.000000)" fill="#FFDE00">
                            <path d="M0.5,0 L0.809016996,1 L0,0.381966005 L1,0.381966005 L0.190983004,1 L0.5,0 Z" id="s"></path>
                        </g>
                        <g id="s-link" transform="translate(3.500000, 3.500000) rotate(-51.340192) translate(-3.500000, -3.500000) translate(3.000000, 3.000000)" fill="#FFDE00">
                            <path d="M0.5,0 L0.809016996,1 L0,0.381966005 L1,0.381966005 L0.190983004,1 L0.5,0 Z" id="s"></path>
                        </g>
                    </g>
                    <path d="M0.5,0.0424528302 L0.5,17.9575472" id="Line" stroke="#4A4A4A" stroke-linecap="square"></path>
                </g>
                <g id="Flag" transform="translate(27.000000, 9.000000)">
                    <g id="Clipped" transform="translate(1.000000, 0.000000)">
                        <mask id="mask-10" sketch:name="Shape" fill="white">
                            <use xlink:href="#path-9"></use>
                        </mask>
                        <g id="Shape"></g>
                        <g id="Group" mask="url(#mask-10)">
                            <path d="M0,0 L0,6 L9,6 L9,0 L0,0 Z" id="Shape" fill="#002395" sketch:type="MSShapeGroup"></path>
                            <path d="M0,0 L0,3 L9,3 L9,0 L0,0 Z" id="Shape" fill="#DE3831" sketch:type="MSShapeGroup"></path>
                            <g>
                                <path d="M0,0 L5,3 L0,6 M5,3 L10,3" id="W" stroke="#FFFFFF" stroke-width="2" fill="#000000" sketch:type="MSShapeGroup"></path>
                                <g id="Clipped">
                                    <mask id="mask-12" sketch:name="X" fill="white">
                                        <use xlink:href="#path-11"></use>
                                    </mask>
                                    <g id="X"></g>
                                    <g id="X-link" mask="url(#mask-12)" stroke="#FFB612" stroke-width="2" fill="#000000" sketch:type="MSShapeGroup">
                                        <path d="M0,0 L4,3 L0,6" id="X"></path>
                                    </g>
                                </g>
                            </g>
                            <g id="W-link" stroke="#007A4D" stroke-width="1.2" sketch:type="MSShapeGroup">
                                <path d="M0,0 L5,3 L0,6 M5,3 L10,3" id="W"></path>
                            </g>
                        </g>
                    </g>
                    <path d="M0.5,0.0377358491 L0.5,15.9622642" id="Line" stroke="#4A4A4A" stroke-linecap="square" sketch:type="MSShapeGroup"></path>
                </g>
                <g id="Flag" transform="translate(38.000000, 12.000000)" sketch:type="MSShapeGroup">
                    <g id="Flag_of_Israel" transform="translate(2.000000, 0.000000)">
                        <rect id="Rectangle" fill="#FFFFFF" x="0" y="0" width="10" height="7"></rect>
                        <rect id="Rectangle" fill="#0038B8" x="0" y="1" width="10" height="1"></rect>
                        <rect id="Rectangle" fill="#0038B8" x="0" y="5" width="10" height="1"></rect>
                        <g id="triangle-link" transform="translate(4.000000, 2.000000)" stroke="#0038B8" stroke-width="5.5" fill="#000000" fill-opacity="0">
                            <path d="M1,0 L0,2 L2,2 L1,0 Z" id="triangle"></path>
                        </g>
                        <g id="triangle-link" transform="translate(5.000000, 4.000000) rotate(180.000000) translate(-5.000000, -4.000000) translate(4.000000, 3.000000)" stroke="#0038B8" stroke-width="5.5" fill="#000000" fill-opacity="0">
                            <path d="M1,0 L0,2 L2,2 L1,0 Z" id="triangle"></path>
                        </g>
                    </g>
                    <path d="M0.5,0.0424528302 L0.5,17.9575472" id="Line" stroke="#4A4A4A" stroke-linecap="square"></path>
                </g>
                <g id="Flag" transform="translate(18.000000, 5.000000)" sketch:type="MSShapeGroup">
                    <g id="Flag_of_the_People's_Republic_of_China" transform="translate(1.000000, 0.000000)">
                        <rect id="Rectangle" fill="#DE2910" x="0" y="0" width="7" height="5"></rect>
                        <g id="s-link" transform="translate(1.000000, 1.000000)" fill="#FFDE00">
                            <path d="M1,0 L1.61803399,2 L0,0.763932009 L2,0.763932009 L0.381966008,2 L1,0 Z" id="s"></path>
                        </g>
                        <g id="s-link" transform="translate(2.500000, 0.500000) rotate(239.036244) translate(-2.500000, -0.500000) translate(2.000000, 0.000000)" fill="#FFDE00">
                            <path d="M0.5,0 L0.809016996,1 L0,0.381966005 L1,0.381966005 L0.190983004,1 L0.5,0 Z" id="s"></path>
                        </g>
                        <g id="s-link" transform="translate(2.500000, 1.500000) rotate(261.869898) translate(-2.500000, -1.500000) translate(2.000000, 1.000000)" fill="#FFDE00">
                            <path d="M0.5,0 L0.809016996,1 L0,0.381966005 L1,0.381966005 L0.190983004,1 L0.5,0 Z" id="s"></path>
                        </g>
                        <g id="s-link" transform="translate(2.500000, 2.500000) rotate(-74.054604) translate(-2.500000, -2.500000) translate(2.000000, 2.000000)" fill="#FFDE00">
                            <path d="M0.5,0 L0.809016996,1 L0,0.381966005 L1,0.381966005 L0.190983004,1 L0.5,0 Z" id="s"></path>
                        </g>
                        <g id="s-link" transform="translate(2.500000, 2.500000) rotate(-51.340192) translate(-2.500000, -2.500000) translate(2.000000, 2.000000)" fill="#FFDE00">
                            <path d="M0.5,0 L0.809016996,1 L0,0.381966005 L1,0.381966005 L0.190983004,1 L0.5,0 Z" id="s"></path>
                        </g>
                    </g>
                    <path d="M0.5,1.03066038 L0.5,13.9693396" id="Line" stroke="#4A4A4A" stroke-linecap="square"></path>
                </g>
                <g id="Flag">
                    <g id="Clipped" transform="translate(1.000000, 0.000000)">
                        <mask id="mask-14" sketch:name="Shape" fill="white">
                            <use xlink:href="#path-13"></use>
                        </mask>
                        <g id="Shape"></g>
                        <g id="Group" mask="url(#mask-14)">
                            <path d="M0,0 L0,4 L5,4 L5,0 L0,0 Z" id="Shape" fill="#002395" sketch:type="MSShapeGroup"></path>
                            <path d="M0,0 L0,2 L5,2 L5,0 L0,0 Z" id="Shape" fill="#DE3831" sketch:type="MSShapeGroup"></path>
                            <g>
                                <path d="M0,0 L3,2 L0,4 M3,2 L6,2" id="W" stroke="#FFFFFF" stroke-width="2" fill="#000000" sketch:type="MSShapeGroup"></path>
                                <g id="Clipped">
                                    <mask id="mask-16" sketch:name="X" fill="white">
                                        <use xlink:href="#path-15"></use>
                                    </mask>
                                    <g id="X"></g>
                                    <g id="X-link" mask="url(#mask-16)" stroke="#FFB612" stroke-width="2" fill="#000000" sketch:type="MSShapeGroup">
                                        <path d="M0,0 L3,2 L0,4" id="X"></path>
                                    </g>
                                </g>
                            </g>
                            <g id="W-link" stroke="#007A4D" stroke-width="1.2" sketch:type="MSShapeGroup">
                                <path d="M0,0 L3,2 L0,4 M3,2 L6,2" id="W"></path>
                            </g>
                        </g>
                    </g>
                    <path d="M0.5,1.02358491 L0.5,10.9764151" id="Line" stroke="#4A4A4A" stroke-linecap="square" sketch:type="MSShapeGroup"></path>
                </g>
                <g id="Flag" transform="translate(8.000000, 3.000000)" sketch:type="MSShapeGroup">
                    <g id="Flag_of_Israel" transform="translate(2.000000, 0.000000)">
                        <rect id="Rectangle" fill="#FFFFFF" x="0" y="0" width="6" height="5"></rect>
                        <rect id="Rectangle" fill="#0038B8" x="0" y="1" width="6" height="1"></rect>
                        <rect id="Rectangle" fill="#0038B8" x="0" y="3" width="6" height="1"></rect>
                        <g id="triangle-link" transform="translate(2.000000, 2.000000)" stroke="#0038B8" stroke-width="5.5" fill="#000000" fill-opacity="0">
                            <path d="M1,0 L0,2 L2,2 L1,0 Z" id="triangle"></path>
                        </g>
                        <g id="triangle-link" transform="translate(3.000000, 3.000000) rotate(180.000000) translate(-3.000000, -3.000000) translate(2.000000, 2.000000)" stroke="#0038B8" stroke-width="5.5" fill="#000000" fill-opacity="0">
                            <path d="M1,0 L0,2 L2,2 L1,0 Z" id="triangle"></path>
                        </g>
                    </g>
                    <path d="M0.5,1.02830189 L0.5,12.9716981" id="Line" stroke="#4A4A4A" stroke-linecap="square"></path>
                </g>
            </g>
            <g id="Foreground" sketch:type="MSLayerGroup" transform="translate(0.000000, 494.000000)">
                <path d="M-2.84217094e-14,272.06544 C-2.84217094e-14,272.06544 344.714039,-48.404057 813.664919,84.0534644 C960.024841,125.393566 1021.61328,159.406883 1404,126.90557 L1404,303.999988 L8.64838171e-07,303.999988 L-2.84217094e-14,272.06544 Z" id="Path-1" fill="#7EC486" sketch:type="MSShapeGroup"></path>
                <path d="M187.197114,306 C187.197114,306 293.68428,269.368744 325.451921,187.797722 C357.219566,106.226702 342.835069,86.8202974 342.835069,86.8202974 L384.292802,76.1222059 C384.292802,76.1222059 418.028098,107.168343 425.873252,187.797722 C433.718408,268.427101 407.017167,306 407.017167,306" id="Path-2" fill="#683727" sketch:type="MSShapeGroup"></path>
                <g id="Foreground-Flags" transform="translate(428.000000, 0.000000)">
                    <g id="Flag" transform="translate(-0.273327, 0.209268)">
                        <path d="M1.27275987,0.254551973 L1.27275987,107.675485" id="Line" stroke="#4A4A4A" stroke-width="5" stroke-linecap="square" sketch:type="MSShapeGroup"></path>
                        <g id="Flag_of_the_United_Kingdom" transform="translate(4.530528, 0.000000)">
                            <path d="M1.42108547e-14,-1.77635684e-14 L1.42108547e-14,36 L72,36 L72,-1.77635684e-14 L1.42108547e-14,-1.77635684e-14 Z" id="Shape" fill="#00247D" sketch:type="MSShapeGroup"></path>
                            <path d="M1.56319402e-14,-1.56319402e-14 L72,36 M72,-1.56319402e-14 L1.56319402e-14,36" id="Shape" stroke="#FFFFFF" stroke-width="6" fill="#000000" sketch:type="MSShapeGroup"></path>
                            <g id="Clipped" transform="translate(0.000000, -0.000000)">
                                <mask id="mask-18" sketch:name="Shape" fill="white">
                                    <use xlink:href="#path-17"></use>
                                </mask>
                                <g id="Shape"></g>
                                <path d="M1.56319402e-14,-1.56319402e-14 L72,36 M72,-1.56319402e-14 L1.56319402e-14,36" id="Shape" stroke="#CF142B" stroke-width="4" fill="#000000" sketch:type="MSShapeGroup" mask="url(#mask-18)"></path>
                            </g>
                            <path d="M36,2.7000624e-14 L36,36 M8.52651283e-15,18 L72,18" id="Shape" stroke="#FFFFFF" stroke-width="10" fill="#000000" sketch:type="MSShapeGroup"></path>
                            <path d="M36,2.7000624e-14 L36,36 M8.52651283e-15,18 L72,18" id="Shape" stroke="#CF142B" stroke-width="6" fill="#000000" sketch:type="MSShapeGroup"></path>
                        </g>
                    </g>
                    <g id="Flag" transform="translate(18.053073, 53.647913)" sketch:type="MSShapeGroup">
                        <g id="Flag_of_Japan" transform="translate(6.137275, 0.126174)">
                            <rect id="Rectangle" fill="#FFFFFF" x="0" y="0" width="95.8665835" height="63.9110557"></rect>
                            <circle id="Oval" fill="#BC002D" cx="47.9332918" cy="31.9555278" r="19.1733167"></circle>
                        </g>
                        <path d="M1.99722049,0.399444098 L1.99722049,168.964854" id="Line" stroke="#4A4A4A" stroke-width="5" stroke-linecap="square"></path>
                    </g>
                    <g id="Flag" transform="translate(36.483977, 153.833407)" sketch:type="MSShapeGroup">
                        <g id="Flag_of_France" transform="translate(7.940968, 0.913156)">
                            <rect id="Rectangle" fill="#ED2939" x="0" y="0" width="120" height="80"></rect>
                            <rect id="Rectangle" fill="#FFFFFF" x="0" y="0" width="80" height="80"></rect>
                            <rect id="Rectangle" fill="#002395" x="0" y="0" width="40" height="80"></rect>
                        </g>
                        <path d="M2.5,0.5 L2.5,211.5" id="Line" stroke="#4A4A4A" stroke-width="5" stroke-linecap="square"></path>
                    </g>
                </g>
            </g>
            <g id="Cloud" sketch:type="MSLayerGroup" transform="translate(887.000000, -123.000000)" fill="#F4F1E7">
                <circle id="Oval-1" sketch:type="MSShapeGroup" cx="478" cy="152" r="126"></circle>
                <circle id="Oval-1" sketch:type="MSShapeGroup" cx="323" cy="171" r="126"></circle>
                <circle id="Oval-1" sketch:type="MSShapeGroup" cx="153" cy="126" r="126"></circle>
                <path d="M61,238 C94.6893714,238 122,221.882252 122,202 C122,182.117748 94.6893714,166 61,166 C27.3106286,166 0,182.117748 0,202 C0,221.882252 27.3106286,238 61,238 Z" id="Oval-4" sketch:type="MSShapeGroup"></path>
            </g>
            <g id="Tent" sketch:type="MSLayerGroup" transform="translate(1096.000000, 526.000000)">
                <path d="M45.7987173,131.444279 L129.34611,102.106976 L129.346108,14.5823408 L45.7987173,131.444279 Z" id="Path-103" fill="#1A3238" sketch:type="MSShapeGroup"></path>
                <path d="M37.8764248,130.318073 L166.269127,169.626393 L157.366095,91.0097505 L37.8764248,130.318073 Z" id="Path-103" fill="#2C616E" sketch:type="MSShapeGroup"></path>
                <path d="M129.084953,14.6367481 L226.034465,0.410319085 L295.275412,111.066126 L165.265828,173.036077 L129.084953,14.6367481 Z" id="Path-101" stroke="#979797" fill="#2C616E" sketch:type="MSShapeGroup"></path>
                <path d="M46.6893189,132.218624 L0.453572756,132.218624 L129.475487,14.7252846 L46.6893189,132.218624 Z" id="Path-100" fill="#599BA8" sketch:type="MSShapeGroup"></path>
                <path d="M166.256042,172.618229 L129.361342,190.840144 L129.361342,14.1035563 L166.256042,172.618229 Z" id="Path-102" fill="#599BA8" sketch:type="MSShapeGroup"></path>
            </g>
            <g id="Fire" sketch:type="MSLayerGroup" transform="translate(983.000000, 603.000000)">
                <g id="Log" transform="translate(0.000000, 58.000000)" sketch:type="MSShapeGroup">
                    <path d="M4.88773846,22.8192487 L56.1549314,-0.179858885 C56.1549314,-0.179858885 64.2202038,1.51086302 64.2202046,9.66331491 L64.2202054,18.6254648 L5.87443346,47.9396846" id="Path-105" fill="#683727"></path>
                    <path d="M5,48 C7.76142389,48 10,42.4035597 10,35.5 C10,28.5964403 7.76142389,23 5,23 C2.23857611,23 0,28.5964403 0,35.5 C0,42.4035597 2.23857611,48 5,48 Z" id="Oval-6" fill="#CF7B60"></path>
                </g>
                <g id="Log" transform="translate(45.000000, 89.000000) scale(-1, 1) translate(-45.000000, -89.000000) translate(13.000000, 65.000000)" sketch:type="MSShapeGroup">
                    <path d="M4.88773846,22.8192487 L56.1549314,-0.179858885 C56.1549314,-0.179858885 64.2202038,1.51086302 64.2202046,9.66331491 L64.2202054,18.6254648 L5.87443346,47.9396846" id="Path-105" fill="#683727"></path>
                    <path d="M5,48 C7.76142389,48 10,42.4035597 10,35.5 C10,28.5964403 7.76142389,23 5,23 C2.23857611,23 0,28.5964403 0,35.5 C0,42.4035597 2.23857611,48 5,48 Z" id="Oval-6" fill="#CF7B60"></path>
                </g>
                <g id="Flames" transform="translate(5.000000, 0.000000)" sketch:type="MSShapeGroup">
                    <path d="M1.74013114,27.8809787 C-2.46704102,35.1655884 3.3688354,41.0620787 3.3688354,41.0620787 C3.3688354,41.0620787 9.68050941,37.8652567 9.68050989,30.7392299 C9.68051035,23.6132032 5.27017834,15.8510198 5.27017834,15.8510198 C5.27017834,15.8510198 5.94730333,20.596369 1.74013114,27.8809787 Z" id="Path-107" fill="#FF1515"></path>
                    <path d="M33.5447497,89.7001713 C11.7200317,89.7001648 0.643601746,67.3650153 0.643600043,58.6220013 C0.643597968,49.8789872 15.3732804,44.6433873 15.3732811,30.8932548 C15.3732812,17.1431224 40.8536857,-0.403671654 40.8536857,-0.403671654 C40.8536857,-0.403671654 33.2968258,9.98974819 40.391864,25.8034941 C47.4869019,41.6172405 47.3264813,51.8235006 47.3264813,51.8235006 C47.3264813,51.8235006 46.48791,61.1936201 52.8756335,41.1845871 C59.2633568,21.1755539 52.6593065,13.2929875 52.6593065,13.2929875 C52.6593065,13.2929875 65.7896276,27.023679 65.7896265,50.6324867 C65.7896248,74.2412945 55.3694677,89.7001779 33.5447497,89.7001713 Z" id="Path-108" fill="#FF1515"></path>
                    <path d="M30.2014775,89 C16.8009868,88.999996 10.000001,75.3664685 10,70.0296731 C9.99999873,64.6928777 19.0441006,61.4970319 19.044101,53.1038573 C19.0441011,44.7106827 34.6892023,34 34.6892023,34 C34.6892023,34 30.0492509,40.3442143 34.4056414,49.9970326 C38.7620317,59.6498512 38.6635326,65.879822 38.6635326,65.879822 C38.6635326,65.879822 38.1486454,71.5994068 42.070741,59.3857567 C45.9928364,47.1721064 41.9379151,42.3605341 41.9379151,42.3605341 C41.9379151,42.3605341 50.0000007,50.7418418 50,65.152819 C49.999999,79.5637962 43.6019682,89.000004 30.2014775,89 Z" id="Path-108" fill="#F4F337" transform="translate(30.000000, 61.500000) scale(-1, 1) translate(-30.000000, -61.500000) "></path>
                    <path d="M51.7401311,47.8809787 C47.532959,55.1655884 53.3688354,61.0620787 53.3688354,61.0620787 C53.3688354,61.0620787 59.6805094,57.8652567 59.6805099,50.7392299 C59.6805103,43.6132032 55.2701783,35.8510198 55.2701783,35.8510198 C55.2701783,35.8510198 55.9473033,40.596369 51.7401311,47.8809787 Z" id="Path-107" fill="#F4F337"></path>
                </g>
            </g>
        </g>
    </g>
</svg>