<?xml version="1.0" encoding="UTF-8" standalone="no"?>
<svg width="1400px" height="800px" viewBox="0 0 1400 800" version="1.1" xmlns="http://www.w3.org/2000/svg" xmlns:xlink="http://www.w3.org/1999/xlink" xmlns:sketch="http://www.bohemiancoding.com/sketch/ns">
    <title>mountain_path</title>
    <description>Created with Sketch (http://www.bohemiancoding.com/sketch)</description>
    <defs>
        <path id="path-1" d="M0,0 L22.3593532,0 L22.3593532,14.9062355 L0,14.9062355 L0,0 Z"></path>
        <path id="path-3" d="M0,0 L11.1796766,7.45311773 L0,14.9062355"></path>
        <path id="path-5" d="M0,0 L14.0922524,0 L14.0922524,9.37850194 L0,9.37850194 L0,0 Z"></path>
        <path id="path-7" d="M0,0 L7.04612619,4.68925097 L0,9.37850194"></path>
        <path id="path-9" d="M0,0 L9,0 L9,6 L0,6 L0,0 Z"></path>
        <path id="path-11" d="M0,0 L4,3 L0,6"></path>
        <path id="path-13" d="M0,0 L5,0 L5,4 L0,4 L0,0 Z"></path>
        <path id="path-15" d="M0,0 L3,2 L0,4"></path>
        <path d="M36,18 L72,18 L72,36 L36,18 Z M36,18 L36,36 L8.52651283e-15,36 L36,18 Z M36,18 L1.56319402e-14,18 L1.56319402e-14,-1.7408297e-14 L36,18 Z M36,18 L36,2.52242671e-14 L72,2.52242671e-14 L36,18 Z" id="path-17"></path>
    </defs>
    <g id="Page-1" stroke="none" stroke-width="1" fill="none" fill-rule="evenodd" sketch:type="MSPage">
        <g id="mountain_path" sketch:type="MSArtboardGroup">
            <rect id="Sky" fill="#8CDDEE" sketch:type="MSShapeGroup" x="0" y="0" width="1404" height="800"></rect>
            <g id="Mountain-1" sketch:type="MSLayerGroup" transform="translate(0.000000, 206.000000)">
                <path d="M-2.84217094e-14,245.11816 L40.9138209,165.944082 L324.229642,2.7460835 L384.351187,169.524007 L416.549079,195.885256 L462.319918,339 L-1.26160398e-06,389.175863 L-2.84217094e-14,245.11816 Z" id="Path-5" fill="#1A3238" sketch:type="MSShapeGroup"></path>
                <path d="M170.774101,91.1221318 L246.874399,86.0696581 L292.645237,97.109722 L350.061829,72.9647443 L324.478989,-0.366843715 L170.774101,91.1221318 Z" id="Path-6" fill="#F4F1E7" sketch:type="MSShapeGroup"></path>
                <path d="M379.167753,156.768177 C379.167753,156.768177 348.924777,153.923027 346.18702,149.336976 C343.449263,144.750925 322.131156,144.653809 316.973419,146.995393 C311.815682,149.336976 304.282776,151.022125 297.973443,151.022125 C291.664109,151.022125 267.866268,139.420316 267.866268,139.420316" id="Path-112" stroke="#574742" stroke-width="2" sketch:type="MSShapeGroup"></path>
                <path d="M200,140 C200,140 207.764059,137.540006 217.035177,137.540008 C222.767478,137.540009 234.88879,129.823633 234.88879,129.823633 C234.88879,129.823633 241.397504,126.093657 243.672351,126.093657 C249.632076,126.093656 265.194156,116.741213 269.052277,116.741214" id="Path-113" stroke="#574742" sketch:type="MSShapeGroup" transform="translate(234.500000, 128.500000) scale(-1, 1) translate(-234.500000, -128.500000) "></path>
                <path d="M85.6649858,140.074834 L185.182448,128.556609 L218.453518,136.985056 L190.993818,106.706533 L151.840993,101.551481 L85.6649858,140.074834 Z" id="Path-7" fill="#F4F1E7" sketch:type="MSShapeGroup"></path>
            </g>
            <path d="M226.826799,465.371617 C226.826799,465.371617 267.241597,454.949595 279.82176,442.930542 C292.401925,430.911492 340.571646,439.847997 349.445202,435.038938 C358.318757,430.22988 399.375599,414.723634 407.767176,417.045434 C416.158754,419.367234 420.926444,414.59954 420.926444,414.59954" id="Path-111" stroke="#734D41" stroke-width="3" sketch:type="MSShapeGroup"></path>
            <g id="Midground" sketch:type="MSLayerGroup" transform="translate(0.000000, 465.000000)">
                <path d="M2.61763944e-10,47.9999997 C2.61763944e-10,47.9999997 99.9559402,-0.00376782319 258.379852,-0.00376782319 C416.803764,-0.00376782319 563.126997,87.3366556 679.18866,188.111233 C769.641353,266.649938 856.339009,335 856.339009,335 L0,335 L2.61763944e-10,47.9999997 Z" id="Path-3" fill="#57B26E" sketch:type="MSShapeGroup"></path>
                <path d="M161.718548,5.73247637 C161.718548,5.73247637 231.994529,36.9099175 230.737418,44.1628014 C230.402385,46.0957704 222.485922,47.6441207 210.7967,50.1571366 C178.625635,57.0734526 119.025599,66.5996265 119.025681,75.6478058 C119.025979,108.646227 253.475021,167.209178 277.827827,199.430787 C302.180633,231.652408 314.578759,195.88 286.381111,167.136444 C262.317387,142.606846 168.220219,115.750245 140.630265,90.2876755 C135.890567,85.9134425 131.414306,81.9020145 131.413489,77.6060044 C131.411502,67.1582326 238.562467,52.5855328 238.562467,44.1628014 C238.562467,35.74007 167.386158,5.14078678 167.386158,5.14078678 L161.718548,5.73247637 Z" id="Path-4" fill="#683727" sketch:type="MSShapeGroup"></path>
            </g>
            <g id="Midground-Flags-1" sketch:type="MSLayerGroup" transform="translate(146.000000, 530.000000)">
                <g id="Flag" transform="translate(125.856609, 43.106841)" sketch:type="MSShapeGroup">
                    <g id="Flag_of_the_People's_Republic_of_China" transform="translate(3.052034, 0.856690)">
                        <rect id="Rectangle" fill="#DE2910" x="0" y="0" width="26.2710618" height="17.5140412"></rect>
                        <g id="s-link" transform="translate(1.751404, 1.751404)" fill="#FFDE00">
                            <path d="M2.62710618,2.67430522e-11 L4.17128043,4.75247974 L0.128579754,1.8152857 L5.1256326,1.8152857 L1.08293192,4.75247974 L2.62710618,2.67430522e-11 Z" id="s"></path>
                        </g>
                        <g id="s-link" transform="translate(8.757021, 1.751404) rotate(239.036244) translate(-8.757021, -1.751404) translate(7.881319, 0.875702)" fill="#FFDE00">
                            <path d="M0.875702059,8.91442475e-12 L1.39042681,1.58415991 L0.0428599179,0.605095233 L1.7085442,0.605095233 L0.360977306,1.58415991 L0.875702059,8.91442475e-12 Z" id="s"></path>
                        </g>
                        <g id="s-link" transform="translate(10.508425, 3.502808) rotate(261.869898) translate(-10.508425, -3.502808) translate(9.632723, 2.627106)" fill="#FFDE00">
                            <path d="M0.875702059,8.91442475e-12 L1.39042681,1.58415991 L0.0428599179,0.605095233 L1.7085442,0.605095233 L0.360977306,1.58415991 L0.875702059,8.91442475e-12 Z" id="s"></path>
                        </g>
                        <g id="s-link" transform="translate(10.508425, 6.129914) rotate(-74.054604) translate(-10.508425, -6.129914) translate(9.632723, 5.254212)" fill="#FFDE00">
                            <path d="M0.875702059,8.91442475e-12 L1.39042681,1.58415991 L0.0428599179,0.605095233 L1.7085442,0.605095233 L0.360977306,1.58415991 L0.875702059,8.91442475e-12 Z" id="s"></path>
                        </g>
                        <g id="s-link" transform="translate(8.757021, 7.881319) rotate(-51.340192) translate(-8.757021, -7.881319) translate(7.881319, 7.005616)" fill="#FFDE00">
                            <path d="M0.875702059,8.91442475e-12 L1.39042681,1.58415991 L0.0428599179,0.605095233 L1.7085442,0.605095233 L0.360977306,1.58415991 L0.875702059,8.91442475e-12 Z" id="s"></path>
                        </g>
                    </g>
                    <path d="M1,0.109462757 L1,46.3027464" id="Line" stroke="#4A4A4A" stroke-width="2" stroke-linecap="square"></path>
                </g>
                <g id="Flag" transform="translate(66.124326, 22.041089)">
                    <g id="Clipped" transform="translate(2.597592, 0.729130)">
                        <mask id="mask-2" sketch:name="Shape" fill="white">
                            <use xlink:href="#path-1"></use>
                        </mask>
                        <g id="Shape"></g>
                        <g id="Group" mask="url(#mask-2)">
                            <path d="M0,0 L0,14.9062355 L22.3593532,14.9062355 L22.3593532,0 L0,0 Z" id="Shape" fill="#002395" sketch:type="MSShapeGroup"></path>
                            <path d="M0,0 L0,7.45311773 L22.3593532,7.45311773 L22.3593532,0 L0,0 Z" id="Shape" fill="#DE3831" sketch:type="MSShapeGroup"></path>
                            <g>
                                <path d="M0,0 L11.1796766,7.45311773 L0,14.9062355 M11.1796766,7.45311773 L22.3593532,7.45311773" id="W" stroke="#FFFFFF" stroke-width="2" fill="#000000" sketch:type="MSShapeGroup"></path>
                                <g id="Clipped">
                                    <mask id="mask-4" sketch:name="X" fill="white">
                                        <use xlink:href="#path-3"></use>
                                    </mask>
                                    <g id="X"></g>
                                    <g id="X-link" mask="url(#mask-4)" stroke="#FFB612" stroke-width="2" fill="#000000" sketch:type="MSShapeGroup">
                                        <path d="M0,0 L11.1796766,7.45311773 L0,14.9062355" id="X"></path>
                                    </g>
                                </g>
                            </g>
                            <g id="W-link" stroke="#007A4D" stroke-width="1.2" sketch:type="MSShapeGroup">
                                <path d="M0,0 L11.1796766,7.45311773 L0,14.9062355 M11.1796766,7.45311773 L22.3593532,7.45311773" id="W"></path>
                            </g>
                        </g>
                    </g>
                    <path d="M1,0.0931639716 L1,39.40836" id="Line" stroke="#4A4A4A" stroke-width="2" stroke-linecap="square" sketch:type="MSShapeGroup"></path>
                </g>
                <g id="Flag" transform="translate(94.071287, 29.725179)" sketch:type="MSShapeGroup">
                    <g id="Flag_of_Israel" transform="translate(2.909451, 0.816667)">
                        <rect id="Rectangle" fill="#FFFFFF" x="0" y="0" width="22.9567675" height="16.6958309"></rect>
                        <rect id="Rectangle" fill="#0038B8" x="0" y="1.56523415" width="22.9567675" height="2.60872358"></rect>
                        <rect id="Rectangle" fill="#0038B8" x="0" y="12.5218732" width="22.9567675" height="2.60872358"></rect>
                        <g id="triangle-link" transform="translate(8.869660, 5.321796)" stroke="#0038B8" stroke-width="5.5" fill="#000000" fill-opacity="0">
                            <path d="M2.60872358,-0.0147148864 L-0.0247161198,4.54653648 L5.24216328,4.54653648 L2.60872358,-0.0147148864 Z" id="triangle"></path>
                        </g>
                        <g id="triangle-link" transform="translate(11.478384, 9.078358) rotate(180.000000) translate(-11.478384, -9.078358) translate(8.869660, 6.782681)" stroke="#0038B8" stroke-width="5.5" fill="#000000" fill-opacity="0">
                            <path d="M2.60872358,-0.0147148864 L-0.0247161198,4.54653648 L5.24216328,4.54653648 L2.60872358,-0.0147148864 Z" id="triangle"></path>
                        </g>
                    </g>
                    <path d="M0.945459904,0.104348943 L0.945459904,44.139603" id="Line" stroke="#4A4A4A" stroke-width="2" stroke-linecap="square"></path>
                </g>
                <g id="Flag" transform="translate(44.065054, 13.683480)" sketch:type="MSShapeGroup">
                    <g id="Flag_of_the_People's_Republic_of_China" transform="translate(2.057760, 0.334554)">
                        <rect id="Rectangle" fill="#DE2910" x="0" y="0" width="18.243704" height="12.1413514"></rect>
                        <g id="s-link" transform="translate(1.216247, 1.214135)" fill="#FFDE00">
                            <path d="M1.8243704,1.85393922e-11 L2.89670841,3.29458666 L0.0892910605,1.2584201 L3.55944974,1.2584201 L0.75203239,3.29458666 L1.8243704,1.85393922e-11 Z" id="s"></path>
                        </g>
                        <g id="s-link" transform="translate(6.081235, 1.214135) rotate(239.036244) translate(-6.081235, -1.214135) translate(5.473111, 0.607068)" fill="#FFDE00">
                            <path d="M0.608123466,6.17983442e-12 L0.965569469,1.09819555 L0.0297636868,0.419473368 L1.18648325,0.419473368 L0.250677463,1.09819555 L0.608123466,6.17983442e-12 Z" id="s"></path>
                        </g>
                        <g id="s-link" transform="translate(7.297482, 2.428270) rotate(261.869898) translate(-7.297482, -2.428270) translate(6.689358, 1.821203)" fill="#FFDE00">
                            <path d="M0.608123466,6.17983442e-12 L0.965569469,1.09819555 L0.0297636868,0.419473368 L1.18648325,0.419473368 L0.250677463,1.09819555 L0.608123466,6.17983442e-12 Z" id="s"></path>
                        </g>
                        <g id="s-link" transform="translate(7.297482, 4.249473) rotate(-74.054604) translate(-7.297482, -4.249473) translate(6.689358, 3.642405)" fill="#FFDE00">
                            <path d="M0.608123466,6.17983442e-12 L0.965569469,1.09819555 L0.0297636868,0.419473368 L1.18648325,0.419473368 L0.250677463,1.09819555 L0.608123466,6.17983442e-12 Z" id="s"></path>
                        </g>
                        <g id="s-link" transform="translate(6.081235, 5.463608) rotate(-51.340192) translate(-6.081235, -5.463608) translate(5.473111, 4.856541)" fill="#FFDE00">
                            <path d="M0.608123466,6.17983442e-12 L0.965569469,1.09819555 L0.0297636868,0.419473368 L1.18648325,0.419473368 L0.250677463,1.09819555 L0.608123466,6.17983442e-12 Z" id="s"></path>
                        </g>
                    </g>
                    <path d="M1.10182909,2.27954163 L1.10182909,34.3023559" id="Line" stroke="#4A4A4A" stroke-width="2" stroke-linecap="square"></path>
                </g>
                <g id="Flag" transform="translate(0.013548, 0.183480)">
                    <g id="Clipped" transform="translate(2.464116, -0.246094)">
                        <mask id="mask-6" sketch:name="Shape" fill="white">
                            <use xlink:href="#path-5"></use>
                        </mask>
                        <g id="Shape"></g>
                        <g id="Group" mask="url(#mask-6)">
                            <path d="M0,0 L0,9.37850194 L14.0922524,9.37850194 L14.0922524,0 L0,0 Z" id="Shape" fill="#002395" sketch:type="MSShapeGroup"></path>
                            <path d="M0,0 L0,4.68925097 L14.0922524,4.68925097 L14.0922524,0 L0,0 Z" id="Shape" fill="#DE3831" sketch:type="MSShapeGroup"></path>
                            <g>
                                <path d="M0,0 L7.04612619,4.68925097 L0,9.37850194 M7.04612619,4.68925097 L14.0922524,4.68925097" id="W" stroke="#FFFFFF" stroke-width="2" fill="#000000" sketch:type="MSShapeGroup"></path>
                                <g id="Clipped">
                                    <mask id="mask-8" sketch:name="X" fill="white">
                                        <use xlink:href="#path-7"></use>
                                    </mask>
                                    <g id="X"></g>
                                    <g id="X-link" mask="url(#mask-8)" stroke="#FFB612" stroke-width="2" fill="#000000" sketch:type="MSShapeGroup">
                                        <path d="M0,0 L7.04612619,4.68925097 L0,9.37850194" id="X"></path>
                                    </g>
                                </g>
                            </g>
                            <g id="W-link" stroke="#007A4D" stroke-width="1.2" sketch:type="MSShapeGroup">
                                <path d="M0,0 L7.04612619,4.68925097 L0,9.37850194 M7.04612619,4.68925097 L14.0922524,4.68925097" id="W"></path>
                            </g>
                        </g>
                    </g>
                    <path d="M1,2.05861564 L1,26.7944145" id="Line" stroke="#4A4A4A" stroke-width="2" stroke-linecap="square" sketch:type="MSShapeGroup"></path>
                </g>
                <g id="Flag" transform="translate(20.896871, 7.041089)" sketch:type="MSShapeGroup">
                    <g id="Flag_of_Israel" transform="translate(3.235917, -0.278398)">
                        <rect id="Rectangle" fill="#FFFFFF" x="0" y="0" width="15.3034069" height="11.111096"></rect>
                        <rect id="Rectangle" fill="#0038B8" x="0" y="1.04166525" width="15.3034069" height="1.73610875"></rect>
                        <rect id="Rectangle" fill="#0038B8" x="0" y="8.33332199" width="15.3034069" height="1.73610875"></rect>
                        <g id="triangle-link" transform="translate(5.912680, 3.541662)" stroke="#0038B8" stroke-width="5.5" fill="#000000" fill-opacity="0">
                            <path d="M1.73902351,-0.00979277496 L-0.0164762238,3.02572561 L3.49452325,3.02572561 L1.73902351,-0.00979277496 Z" id="triangle"></path>
                        </g>
                        <g id="triangle-link" transform="translate(7.651703, 6.041658) rotate(180.000000) translate(-7.651703, -6.041658) translate(5.912680, 4.513883)" stroke="#0038B8" stroke-width="5.5" fill="#000000" fill-opacity="0">
                            <path d="M1.73902351,-0.00979277496 L-0.0164762238,3.02572561 L3.49452325,3.02572561 L1.73902351,-0.00979277496 Z" id="triangle"></path>
                        </g>
                    </g>
                    <path d="M1,1.06944435 L1,30.37496" id="Line" stroke="#4A4A4A" stroke-width="2" stroke-linecap="square"></path>
                </g>
            </g>
            <g id="Midground-Flags-1" sketch:type="MSLayerGroup" transform="translate(189.000000, 466.000000)">
                <g id="Flag" transform="translate(51.000000, 18.000000)" sketch:type="MSShapeGroup">
                    <g id="Flag_of_the_People's_Republic_of_China" transform="translate(2.000000, 0.000000)">
                        <rect id="Rectangle" fill="#DE2910" x="0" y="0" width="11" height="7"></rect>
                        <g id="s-link" transform="translate(1.000000, 1.000000)" fill="#FFDE00">
                            <path d="M1,0 L1.61803399,2 L0,0.763932009 L2,0.763932009 L0.381966008,2 L1,0 Z" id="s"></path>
                        </g>
                        <g id="s-link" transform="translate(3.500000, 0.500000) rotate(239.036244) translate(-3.500000, -0.500000) translate(3.000000, 0.000000)" fill="#FFDE00">
                            <path d="M0.5,0 L0.809016996,1 L0,0.381966005 L1,0.381966005 L0.190983004,1 L0.5,0 Z" id="s"></path>
                        </g>
                        <g id="s-link" transform="translate(4.500000, 1.500000) rotate(261.869898) translate(-4.500000, -1.500000) translate(4.000000, 1.000000)" fill="#FFDE00">
                            <path d="M0.5,0 L0.809016996,1 L0,0.381966005 L1,0.381966005 L0.190983004,1 L0.5,0 Z" id="s"></path>
                        </g>
                        <g id="s-link" transform="translate(4.500000, 2.500000) rotate(-74.054604) translate(-4.500000, -2.500000) translate(4.000000, 2.000000)" fill="#FFDE00">
                            <path d="M0.5,0 L0.809016996,1 L0,0.381966005 L1,0.381966005 L0.190983004,1 L0.5,0 Z" id="s"></path>
                        </g>
                        <g id="s-link" transform="translate(3.500000, 3.500000) rotate(-51.340192) translate(-3.500000, -3.500000) translate(3.000000, 3.000000)" fill="#FFDE00">
                            <path d="M0.5,0 L0.809016996,1 L0,0.381966005 L1,0.381966005 L0.190983004,1 L0.5,0 Z" id="s"></path>
                        </g>
                    </g>
                    <path d="M0.5,0.0424528302 L0.5,17.9575472" id="Line" stroke="#4A4A4A" stroke-linecap="square"></path>
                </g>
                <g id="Flag" transform="translate(27.000000, 9.000000)">
                    <g id="Clipped" transform="translate(1.000000, 0.000000)">
                        <mask id="mask-10" sketch:name="Shape" fill="white">
                            <use xlink:href="#path-9"></use>
                        </mask>
                        <g id="Shape"></g>
                        <g id="Group" mask="url(#mask-10)">
                            <path d="M0,0 L0,6 L9,6 L9,0 L0,0 Z" id="Shape" fill="#002395" sketch:type="MSShapeGroup"></path>
                            <path d="M0,0 L0,3 L9,3 L9,0 L0,0 Z" id="Shape" fill="#DE3831" sketch:type="MSShapeGroup"></path>
                            <g>
                                <path d="M0,0 L5,3 L0,6 M5,3 L10,3" id="W" stroke="#FFFFFF" stroke-width="2" fill="#000000" sketch:type="MSShapeGroup"></path>
                                <g id="Clipped">
                                    <mask id="mask-12" sketch:name="X" fill="white">
                                        <use xlink:href="#path-11"></use>
                                    </mask>
                                    <g id="X"></g>
                                    <g id="X-link" mask="url(#mask-12)" stroke="#FFB612" stroke-width="2" fill="#000000" sketch:type="MSShapeGroup">
                                        <path d="M0,0 L4,3 L0,6" id="X"></path>
                                    </g>
                                </g>
                            </g>
                            <g id="W-link" stroke="#007A4D" stroke-width="1.2" sketch:type="MSShapeGroup">
                                <path d="M0,0 L5,3 L0,6 M5,3 L10,3" id="W"></path>
                            </g>
                        </g>
                    </g>
                    <path d="M0.5,0.0377358491 L0.5,15.9622642" id="Line" stroke="#4A4A4A" stroke-linecap="square" sketch:type="MSShapeGroup"></path>
                </g>
                <g id="Flag" transform="translate(38.000000, 12.000000)" sketch:type="MSShapeGroup">
                    <g id="Flag_of_Israel" transform="translate(2.000000, 0.000000)">
                        <rect id="Rectangle" fill="#FFFFFF" x="0" y="0" width="10" height="7"></rect>
                        <rect id="Rectangle" fill="#0038B8" x="0" y="1" width="10" height="1"></rect>
                        <rect id="Rectangle" fill="#0038B8" x="0" y="5" width="10" height="1"></rect>
                        <g id="triangle-link" transform="translate(4.000000, 2.000000)" stroke="#0038B8" stroke-width="5.5" fill="#000000" fill-opacity="0">
                            <path d="M1,0 L0,2 L2,2 L1,0 Z" id="triangle"></path>
                        </g>
                        <g id="triangle-link" transform="translate(5.000000, 4.000000) rotate(180.000000) translate(-5.000000, -4.000000) translate(4.000000, 3.000000)" stroke="#0038B8" stroke-width="5.5" fill="#000000" fill-opacity="0">
                            <path d="M1,0 L0,2 L2,2 L1,0 Z" id="triangle"></path>
                        </g>
                    </g>
                    <path d="M0.5,0.0424528302 L0.5,17.9575472" id="Line" stroke="#4A4A4A" stroke-linecap="square"></path>
                </g>
                <g id="Flag" transform="translate(18.000000, 5.000000)" sketch:type="MSShapeGroup">
                    <g id="Flag_of_the_People's_Republic_of_China" transform="translate(1.000000, 0.000000)">
                        <rect id="Rectangle" fill="#DE2910" x="0" y="0" width="7" height="5"></rect>
                        <g id="s-link" transform="translate(1.000000, 1.000000)" fill="#FFDE00">
                            <path d="M1,0 L1.61803399,2 L0,0.763932009 L2,0.763932009 L0.381966008,2 L1,0 Z" id="s"></path>
                        </g>
                        <g id="s-link" transform="translate(2.500000, 0.500000) rotate(239.036244) translate(-2.500000, -0.500000) translate(2.000000, 0.000000)" fill="#FFDE00">
                            <path d="M0.5,0 L0.809016996,1 L0,0.381966005 L1,0.381966005 L0.190983004,1 L0.5,0 Z" id="s"></path>
                        </g>
                        <g id="s-link" transform="translate(2.500000, 1.500000) rotate(261.869898) translate(-2.500000, -1.500000) translate(2.000000, 1.000000)" fill="#FFDE00">
                            <path d="M0.5,0 L0.809016996,1 L0,0.381966005 L1,0.381966005 L0.190983004,1 L0.5,0 Z" id="s"></path>
                        </g>
                        <g id="s-link" transform="translate(2.500000, 2.500000) rotate(-74.054604) translate(-2.500000, -2.500000) translate(2.000000, 2.000000)" fill="#FFDE00">
                            <path d="M0.5,0 L0.809016996,1 L0,0.381966005 L1,0.381966005 L0.190983004,1 L0.5,0 Z" id="s"></path>
                        </g>
                        <g id="s-link" transform="translate(2.500000, 2.500000) rotate(-51.340192) translate(-2.500000, -2.500000) translate(2.000000, 2.000000)" fill="#FFDE00">
                            <path d="M0.5,0 L0.809016996,1 L0,0.381966005 L1,0.381966005 L0.190983004,1 L0.5,0 Z" id="s"></path>
                        </g>
                    </g>
                    <path d="M0.5,1.03066038 L0.5,13.9693396" id="Line" stroke="#4A4A4A" stroke-linecap="square"></path>
                </g>
                <g id="Flag">
                    <g id="Clipped" transform="translate(1.000000, 0.000000)">
                        <mask id="mask-14" sketch:name="Shape" fill="white">
                            <use xlink:href="#path-13"></use>
                        </mask>
                        <g id="Shape"></g>
                        <g id="Group" mask="url(#mask-14)">
                            <path d="M0,0 L0,4 L5,4 L5,0 L0,0 Z" id="Shape" fill="#002395" sketch:type="MSShapeGroup"></path>
                            <path d="M0,0 L0,2 L5,2 L5,0 L0,0 Z" id="Shape" fill="#DE3831" sketch:type="MSShapeGroup"></path>
                            <g>
                                <path d="M0,0 L3,2 L0,4 M3,2 L6,2" id="W" stroke="#FFFFFF" stroke-width="2" fill="#000000" sketch:type="MSShapeGroup"></path>
                                <g id="Clipped">
                                    <mask id="mask-16" sketch:name="X" fill="white">
                                        <use xlink:href="#path-15"></use>
                                    </mask>
                                    <g id="X"></g>
                                    <g id="X-link" mask="url(#mask-16)" stroke="#FFB612" stroke-width="2" fill="#000000" sketch:type="MSShapeGroup">
                                        <path d="M0,0 L3,2 L0,4" id="X"></path>
                                    </g>
                                </g>
                            </g>
                            <g id="W-link" stroke="#007A4D" stroke-width="1.2" sketch:type="MSShapeGroup">
                                <path d="M0,0 L3,2 L0,4 M3,2 L6,2" id="W"></path>
                            </g>
                        </g>
                    </g>
                    <path d="M0.5,1.02358491 L0.5,10.9764151" id="Line" stroke="#4A4A4A" stroke-linecap="square" sketch:type="MSShapeGroup"></path>
                </g>
                <g id="Flag" transform="translate(8.000000, 3.000000)" sketch:type="MSShapeGroup">
                    <g id="Flag_of_Israel" transform="translate(2.000000, 0.000000)">
                        <rect id="Rectangle" fill="#FFFFFF" x="0" y="0" width="6" height="5"></rect>
                        <rect id="Rectangle" fill="#0038B8" x="0" y="1" width="6" height="1"></rect>
                        <rect id="Rectangle" fill="#0038B8" x="0" y="3" width="6" height="1"></rect>
                        <g id="triangle-link" transform="translate(2.000000, 2.000000)" stroke="#0038B8" stroke-width="5.5" fill="#000000" fill-opacity="0">
                            <path d="M1,0 L0,2 L2,2 L1,0 Z" id="triangle"></path>
                        </g>
                        <g id="triangle-link" transform="translate(3.000000, 3.000000) rotate(180.000000) translate(-3.000000, -3.000000) translate(2.000000, 2.000000)" stroke="#0038B8" stroke-width="5.5" fill="#000000" fill-opacity="0">
                            <path d="M1,0 L0,2 L2,2 L1,0 Z" id="triangle"></path>
                        </g>
                    </g>
                    <path d="M0.5,1.02830189 L0.5,12.9716981" id="Line" stroke="#4A4A4A" stroke-linecap="square"></path>
                </g>
            </g>
            <g id="Foreground" sketch:type="MSLayerGroup" transform="translate(0.000000, 494.000000)">
                <path d="M-2.84217094e-14,272.06544 C-2.84217094e-14,272.06544 344.714039,-48.404057 813.664919,84.0534644 C960.024841,125.393566 1021.61328,159.406883 1404,126.90557 L1404,303.999988 L8.64838171e-07,303.999988 L-2.84217094e-14,272.06544 Z" id="Path-1" fill="#7EC486" sketch:type="MSShapeGroup"></path>
                <path d="M187.197114,306 C187.197114,306 293.68428,269.368744 325.451921,187.797722 C357.219566,106.226702 342.835069,86.8202974 342.835069,86.8202974 L384.292802,76.1222059 C384.292802,76.1222059 418.028098,107.168343 425.873252,187.797722 C433.718408,268.427101 407.017167,306 407.017167,306" id="Path-2" fill="#683727" sketch:type="MSShapeGroup"></path>
                <g id="Foreground-Flags" transform="translate(428.000000, 0.000000)">
                    <g id="Flag" transform="translate(-0.273327, 0.209268)">
                        <path d="M1.27275987,0.254551973 L1.27275987,107.675485" id="Line" stroke="#4A4A4A" stroke-width="5" stroke-linecap="square" sketch:type="MSShapeGroup"></path>
                        <g id="Flag_of_the_United_Kingdom" transform="translate(4.530528, 0.000000)">
                            <path d="M1.42108547e-14,-1.77635684e-14 L1.42108547e-14,36 L72,36 L72,-1.77635684e-14 L1.42108547e-14,-1.77635684e-14 Z" id="Shape" fill="#00247D" sketch:type="MSShapeGroup"></path>
                            <path d="M1.56319402e-14,-1.56319402e-14 L72,36 M72,-1.56319402e-14 L1.56319402e-14,36" id="Shape" stroke="#FFFFFF" stroke-width="6" fill="#000000" sketch:type="MSShapeGroup"></path>
                            <g id="Clipped" transform="translate(0.000000, -0.000000)">
                                <mask id="mask-18" sketch:name="Shape" fill="white">
                                    <use xlink:href="#path-17"></use>
                                </mask>
                                <g id="Shape"></g>
                                <path d="M1.56319402e-14,-1.56319402e-14 L72,36 M72,-1.56319402e-14 L1.56319402e-14,36" id="Shape" stroke="#CF142B" stroke-width="4" fill="#000000" sketch:type="MSShapeGroup" mask="url(#mask-18)"></path>
                            </g>
                            <path d="M36,2.7000624e-14 L36,36 M8.52651283e-15,18 L72,18" id="Shape" stroke="#FFFFFF" stroke-width="10" fill="#000000" sketch:type="MSShapeGroup"></path>
                            <path d="M36,2.7000624e-14 L36,36 M8.52651283e-15,18 L72,18" id="Shape" stroke="#CF142B" stroke-width="6" fill="#000000" sketch:type="MSShapeGroup"></path>
                        </g>
                    </g>
                    <g id="Flag" transform="translate(18.053073, 53.647913)" sketch:type="MSShapeGroup">
                        <g id="Flag_of_Japan" transform="translate(6.137275, 0.126174)">
                            <rect id="Rectangle" fill="#FFFFFF" x="0" y="0" width="95.8665835" height="63.9110557"></rect>
                            <circle id="Oval" fill="#BC002D" cx="47.9332918" cy="31.9555278" r="19.1733167"></circle>
                        </g>
                        <path d="M1.99722049,0.399444098 L1.99722049,168.964854" id="Line" stroke="#4A4A4A" stroke-width="5" stroke-linecap="square"></path>
                    </g>
                    <g id="Flag" transform="translate(36.483977, 153.833407)" sketch:type="MSShapeGroup">
                        <g id="Flag_of_France" transform="translate(7.940968, 0.913156)">
                            <rect id="Rectangle" fill="#ED2939" x="0" y="0" width="120" height="80"></rect>
                            <rect id="Rectangle" fill="#FFFFFF" x="0" y="0" width="80" height="80"></rect>
                            <rect id="Rectangle" fill="#002395" x="0" y="0" width="40" height="80"></rect>
                        </g>
                        <path d="M2.5,0.5 L2.5,211.5" id="Line" stroke="#4A4A4A" stroke-width="5" stroke-linecap="square"></path>
                    </g>
                </g>
            </g>
            <g id="Cloud" sketch:type="MSLayerGroup" transform="translate(887.000000, -123.000000)" fill="#F4F1E7">
                <circle id="Oval-1" sketch:type="MSShapeGroup" cx="478" cy="152" r="126"></circle>
                <circle id="Oval-1" sketch:type="MSShapeGroup" cx="323" cy="171" r="126"></circle>
                <circle id="Oval-1" sketch:type="MSShapeGroup" cx="153" cy="126" r="126"></circle>
                <path d="M61,238 C94.6893714,238 122,221.882252 122,202 C122,182.117748 94.6893714,166 61,166 C27.3106286,166 0,182.117748 0,202 C0,221.882252 27.3106286,238 61,238 Z" id="Oval-4" sketch:type="MSShapeGroup"></path>
            </g>
            <g id="Tent" sketch:type="MSLayerGroup" transform="translate(1096.000000, 526.000000)">
                <path d="M45.7987173,131.444279 L129.34611,102.106976 L129.346108,14.5823408 L45.7987173,131.444279 Z" id="Path-103" fill="#1A3238" sketch:type="MSShapeGroup"></path>
                <path d="M37.8764248,130.318073 L166.269127,169.626393 L157.366095,91.0097505 L37.8764248,130.318073 Z" id="Path-103" fill="#2C616E" sketch:type="MSShapeGroup"></path>
                <path d="M129.084953,14.6367481 L226.034465,0.410319085 L295.275412,111.066126 L165.265828,173.036077 L129.084953,14.6367481 Z" id="Path-101" stroke="#979797" fill="#2C616E" sketch:type="MSShapeGroup"></path>
                <path d="M46.6893189,132.218624 L0.453572756,132.218624 L129.475487,14.7252846 L46.6893189,132.218624 Z" id="Path-100" fill="#599BA8" sketch:type="MSShapeGroup"></path>
                <path d="M166.256042,172.618229 L129.361342,190.840144 L129.361342,14.1035563 L166.256042,172.618229 Z" id="Path-102" fill="#599BA8" sketch:type="MSShapeGroup"></path>
            </g>
            <g id="Fire" sketch:type="MSLayerGroup" transform="translate(983.000000, 603.000000)">
                <g id="Log" transform="translate(0.000000, 58.000000)" sketch:type="MSShapeGroup">
                    <path d="M4.88773846,22.8192487 L56.1549314,-0.179858885 C56.1549314,-0.179858885 64.2202038,1.51086302 64.2202046,9.66331491 L64.2202054,18.6254648 L5.87443346,47.9396846" id="Path-105" fill="#683727"></path>
                    <path d="M5,48 C7.76142389,48 10,42.4035597 10,35.5 C10,28.5964403 7.76142389,23 5,23 C2.23857611,23 0,28.5964403 0,35.5 C0,42.4035597 2.23857611,48 5,48 Z" id="Oval-6" fill="#CF7B60"></path>
                </g>
                <g id="Log" transform="translate(45.000000, 89.000000) scale(-1, 1) translate(-45.000000, -89.000000) translate(13.000000, 65.000000)" sketch:type="MSShapeGroup">
                    <path d="M4.88773846,22.8192487 L56.1549314,-0.179858885 C56.1549314,-0.179858885 64.2202038,1.51086302 64.2202046,9.66331491 L64.2202054,18.6254648 L5.87443346,47.9396846" id="Path-105" fill="#683727"></path>
                    <path d="M5,48 C7.76142389,48 10,42.4035597 10,35.5 C10,28.5964403 7.76142389,23 5,23 C2.23857611,23 0,28.5964403 0,35.5 C0,42.4035597 2.23857611,48 5,48 Z" id="Oval-6" fill="#CF7B60"></path>
                </g>
                <g id="Flames" transform="translate(5.000000, 0.000000)" sketch:type="MSShapeGroup">
                    <path d="M1.74013114,27.8809787 C-2.46704102,35.1655884 3.3688354,41.0620787 3.3688354,41.0620787 C3.3688354,41.0620787 9.68050941,37.8652567 9.68050989,30.7392299 C9.68051035,23.6132032 5.27017834,15.8510198 5.27017834,15.8510198 C5.27017834,15.8510198 5.94730333,20.596369 1.74013114,27.8809787 Z" id="Path-107" fill="#FF1515"></path>
                    <path d="M33.5447497,89.7001713 C11.7200317,89.7001648 0.643601746,67.3650153 0.643600043,58.6220013 C0.643597968,49.8789872 15.3732804,44.6433873 15.3732811,30.8932548 C15.3732812,17.1431224 40.8536857,-0.403671654 40.8536857,-0.403671654 C40.8536857,-0.403671654 33.2968258,9.98974819 40.391864,25.8034941 C47.4869019,41.6172405 47.3264813,51.8235006 47.3264813,51.8235006 C47.3264813,51.8235006 46.48791,61.1936201 52.8756335,41.1845871 C59.2633568,21.1755539 52.6593065,13.2929875 52.6593065,13.2929875 C52.6593065,13.2929875 65.7896276,27.023679 65.7896265,50.6324867 C65.7896248,74.2412945 55.3694677,89.7001779 33.5447497,89.7001713 Z" id="Path-108" fill="#FF1515"></path>
                    <path d="M30.2014775,89 C16.8009868,88.999996 10.000001,75.3664685 10,70.0296731 C9.99999873,64.6928777 19.0441006,61.4970319 19.044101,53.1038573 C19.0441011,44.7106827 34.6892023,34 34.6892023,34 C34.6892023,34 30.0492509,40.3442143 34.4056414,49.9970326 C38.7620317,59.6498512 38.6635326,65.879822 38.6635326,65.879822 C38.6635326,65.879822 38.1486454,71.5994068 42.070741,59.3857567 C45.9928364,47.1721064 41.9379151,42.3605341 41.9379151,42.3605341 C41.9379151,42.3605341 50.0000007,50.7418418 50,65.152819 C49.999999,79.5637962 43.6019682,89.000004 30.2014775,89 Z" id="Path-108" fill="#F4F337" transform="translate(30.000000, 61.500000) scale(-1, 1) translate(-30.000000, -61.500000) "></path>
                    <path d="M51.7401311,47.8809787 C47.532959,55.1655884 53.3688354,61.0620787 53.3688354,61.0620787 C53.3688354,61.0620787 59.6805094,57.8652567 59.6805099,50.7392299 C59.6805103,43.6132032 55.2701783,35.8510198 55.2701783,35.8510198 C55.2701783,35.8510198 55.9473033,40.596369 51.7401311,47.8809787 Z" id="Path-107" fill="#F4F337"></path>
                </g>
            </g>
            <path d="M702,693.382723 L751.434906,738.617277 L652.565094,738.617277 L702,693.382723 Z M701.676896,710.830337 L732.048668,738.617277 L671.305124,738.617277 L701.676896,710.830337 Z" id="Triangle-1" fill="#1A3238" sketch:type="MSShapeGroup" transform="translate(702.000000, 716.000000) rotate(-180.000000) translate(-702.000000, -716.000000) "></path>
            <path d="M662.288,270.088 L662.288,276.616 L647.216,276.616 L647.216,270.856 L608.048,270.856 L608.048,310.024 L647.216,310.024 L647.216,299.656 L632.24,299.656 L632.24,284.68 L662.288,284.68 L662.288,310.792 C662.288,314.69602 660.896014,318.039986 658.112,320.824 C655.327986,323.608014 651.95202,325 647.984,325 L607.376,325 C603.40798,325 600.048014,323.624014 597.296,320.872 C594.543986,318.119986 593.168,314.76002 593.168,310.792 L593.168,270.088 C593.168,266.11998 594.543986,262.760014 597.296,260.008 C600.048014,257.255986 603.40798,255.88 607.376,255.88 L647.984,255.88 C651.95202,255.88 655.327986,257.271986 658.112,260.056 C660.896014,262.840014 662.288,266.18398 662.288,270.088 Z M672.464,250.984 L687.248,250.984 L687.248,310.312 L698.48,310.312 L698.48,325 L686.384,325 C682.607981,325 679.344014,323.624014 676.592,320.872 C673.839986,318.119986 672.464,314.856019 672.464,311.08 L672.464,250.984 Z M718.64,269.32 L747.248,269.32 C751.088019,269.32 754.367986,270.695986 757.088,273.448 C759.808014,276.200014 761.168,279.463981 761.168,283.24 L761.168,311.08 C761.168,314.856019 759.808014,318.119986 757.088,320.872 C754.367986,323.624014 751.088019,325 747.248,325 L718.64,325 C714.863981,325 711.600014,323.624014 708.848,320.872 C706.095986,318.119986 704.72,314.856019 704.72,311.08 L704.72,283.24 C704.72,279.463981 706.095986,276.200014 708.848,273.448 C711.600014,270.695986 714.863981,269.32 718.64,269.32 Z M719.408,284.008 L719.408,310.312 L746.48,310.312 L746.48,284.008 L719.408,284.008 Z M813.968,269.32 C817.808019,269.32 821.087986,270.695986 823.808,273.448 C826.528014,276.200014 827.888,279.463981 827.888,283.24 L827.888,311.08 C827.888,314.856019 826.528014,318.119986 823.808,320.872 C821.087986,323.624014 817.808019,325 813.968,325 L771.44,325 L771.44,251.08 L786.128,251.08 L786.128,269.32 L813.968,269.32 Z M786.128,284.008 L786.128,310.312 L813.2,310.312 L813.2,284.008 L786.128,284.008 Z M877.808,269.32 C881.648019,269.32 884.927986,270.695986 887.648,273.448 C890.368014,276.200014 891.728,279.463981 891.728,283.24 L891.728,325 L849.2,325 C845.359981,325 842.080014,323.624014 839.36,320.872 C836.639986,318.119986 835.28,314.856019 835.28,311.08 L835.28,289.768 L877.04,289.768 L877.04,284.008 L835.28,284.008 L835.28,269.32 L877.808,269.32 Z M877.04,310.312 L877.04,302.632 L849.968,302.632 L849.968,310.312 L877.04,310.312 Z M901.904,250.984 L916.688,250.984 L916.688,310.312 L927.92,310.312 L927.92,325 L915.824,325 C912.047981,325 908.784014,323.624014 906.032,320.872 C903.279986,318.119986 901.904,314.856019 901.904,311.08 L901.904,250.984 Z M965.744,255.88 L1020.56,255.88 C1024.52802,255.88 1027.90399,257.271986 1030.688,260.056 C1033.47201,262.840014 1034.864,266.18398 1034.864,270.088 L1034.864,310.792 C1034.864,314.69602 1033.47201,318.039986 1030.688,320.824 C1027.90399,323.608014 1024.52802,325 1020.56,325 L965.744,325 L965.744,255.88 Z M980.624,270.856 L980.624,310.024 L1019.792,310.024 L1019.792,270.856 L980.624,270.856 Z M1087.76,269.32 C1091.60002,269.32 1094.87999,270.695986 1097.6,273.448 C1100.32001,276.200014 1101.68,279.463981 1101.68,283.24 L1101.68,325 L1059.152,325 C1055.31198,325 1052.03201,323.624014 1049.312,320.872 C1046.59199,318.119986 1045.232,314.856019 1045.232,311.08 L1045.232,289.768 L1086.992,289.768 L1086.992,284.008 L1045.232,284.008 L1045.232,269.32 L1087.76,269.32 Z M1086.992,310.312 L1086.992,302.632 L1059.92,302.632 L1059.92,310.312 L1086.992,310.312 Z M1167.44,331.048 C1167.44,334.888019 1166.08001,338.167986 1163.36,340.888 C1160.63999,343.608014 1157.36002,344.968 1153.52,344.968 L1119.728,344.968 L1119.728,330.184 L1152.752,330.184 L1152.752,325 L1124.912,325 C1121.07198,325 1117.77601,323.624014 1115.024,320.872 C1112.27199,318.119986 1110.896,314.856019 1110.896,311.08 L1110.896,269.512 L1125.584,269.512 L1125.584,310.312 L1152.752,310.312 L1152.752,269.512 L1167.44,269.512 L1167.44,331.048 Z M1222.352,269.32 L1250.96,269.32 C1254.80002,269.32 1258.07999,270.695986 1260.8,273.448 C1263.52001,276.200014 1264.88,279.463981 1264.88,283.24 L1264.88,311.08 C1264.88,314.856019 1263.52001,318.119986 1260.8,320.872 C1258.07999,323.624014 1254.80002,325 1250.96,325 L1222.352,325 C1218.57598,325 1215.31201,323.624014 1212.56,320.872 C1209.80799,318.119986 1208.432,314.856019 1208.432,311.08 L1208.432,283.24 C1208.432,279.463981 1209.80799,276.200014 1212.56,273.448 C1215.31201,270.695986 1218.57598,269.32 1222.352,269.32 Z M1223.12,284.008 L1223.12,310.312 L1250.192,310.312 L1250.192,284.008 L1223.12,284.008 Z M1310.384,265.864 L1289.744,265.864 L1289.744,269.32 L1310.384,269.32 L1310.384,284.008 L1289.744,284.008 L1289.744,325 L1275.056,325 L1275.056,265 C1275.056,261.223981 1276.41599,257.960014 1279.136,255.208 C1281.85601,252.455986 1285.16798,251.08 1289.072,251.08 L1310.384,251.08 L1310.384,265.864 Z M692.864,366.856 L638.816,366.856 L638.816,406.024 L692.864,406.024 L692.864,421 L638.144,421 C634.17598,421 630.816014,419.624014 628.064,416.872 C625.311986,414.119986 623.936,410.76002 623.936,406.792 L623.936,366.088 C623.936,362.11998 625.311986,358.760014 628.064,356.008 C630.816014,353.255986 634.17598,351.88 638.144,351.88 L692.864,351.88 L692.864,366.856 Z M716.288,365.32 L744.896,365.32 C748.736019,365.32 752.015986,366.695986 754.736,369.448 C757.456014,372.200014 758.816,375.463981 758.816,379.24 L758.816,407.08 C758.816,410.856019 757.456014,414.119986 754.736,416.872 C752.015986,419.624014 748.736019,421 744.896,421 L716.288,421 C712.511981,421 709.248014,419.624014 706.496,416.872 C703.743986,414.119986 702.368,410.856019 702.368,407.08 L702.368,379.24 C702.368,375.463981 703.743986,372.200014 706.496,369.448 C709.248014,366.695986 712.511981,365.32 716.288,365.32 Z M717.056,380.008 L717.056,406.312 L744.128,406.312 L744.128,380.008 L717.056,380.008 Z M807.968,347.08 L822.656,347.08 L822.656,421 L780.032,421 C776.191981,421 772.912014,419.624014 770.192,416.872 C767.471986,414.119986 766.112,410.856019 766.112,407.08 L766.112,379.24 C766.112,375.463981 767.471986,372.200014 770.192,369.448 C772.912014,366.695986 776.191981,365.32 780.032,365.32 L807.968,365.32 L807.968,347.08 Z M780.896,380.008 L780.896,406.312 L807.968,406.312 L807.968,380.008 L780.896,380.008 Z M875.36,365.32 C879.200019,365.32 882.479986,366.695986 885.2,369.448 C887.920014,372.200014 889.28,375.463981 889.28,379.24 L889.28,400.552 L847.52,400.552 L847.52,406.312 L889.28,406.312 L889.28,421 L846.752,421 C842.975981,421 839.712014,419.624014 836.96,416.872 C834.207986,414.119986 832.832,410.856019 832.832,407.08 L832.832,379.24 C832.832,375.463981 834.207986,372.200014 836.96,369.448 C839.712014,366.695986 842.975981,365.32 846.752,365.32 L875.36,365.32 Z M847.52,387.688 L874.592,387.688 L874.592,380.008 L847.52,380.008 L847.52,387.688 Z M913.376,365.32 L944.096,365.32 L944.096,380.008 L914.048,380.008 L914.048,421 L899.36,421 L899.36,379.24 C899.36,375.463981 900.735986,372.200014 903.488,369.448 C906.240014,366.695986 909.535981,365.32 913.376,365.32 Z M992.288,365.32 C996.128019,365.32 999.407986,366.695986 1002.128,369.448 C1004.84801,372.200014 1006.208,375.463981 1006.208,379.24 L1006.208,400.552 L964.448,400.552 L964.448,406.312 L1006.208,406.312 L1006.208,421 L963.68,421 C959.903981,421 956.640014,419.624014 953.888,416.872 C951.135986,414.119986 949.76,410.856019 949.76,407.08 L949.76,379.24 C949.76,375.463981 951.135986,372.200014 953.888,369.448 C956.640014,366.695986 959.903981,365.32 963.68,365.32 L992.288,365.32 Z M964.448,387.688 L991.52,387.688 L991.52,380.008 L964.448,380.008 L964.448,387.688 Z M1051.712,380.008 L1031.072,380.008 L1031.072,406.312 L1051.712,406.312 L1051.712,421 L1030.4,421 C1026.49598,421 1023.18401,419.624014 1020.464,416.872 C1017.74399,414.119986 1016.384,410.856019 1016.384,407.08 L1016.384,348.808 L1031.072,348.808 L1031.072,365.32 L1051.712,365.32 L1051.712,380.008 Z M1073.6,365.32 L1104.32,365.32 L1104.32,380.008 L1074.272,380.008 L1074.272,421 L1059.584,421 L1059.584,379.24 C1059.584,375.463981 1060.95999,372.200014 1063.712,369.448 C1066.46401,366.695986 1069.75998,365.32 1073.6,365.32 Z M1152.512,365.32 C1156.35202,365.32 1159.63199,366.695986 1162.352,369.448 C1165.07201,372.200014 1166.432,375.463981 1166.432,379.24 L1166.432,400.552 L1124.672,400.552 L1124.672,406.312 L1166.432,406.312 L1166.432,421 L1123.904,421 C1120.12798,421 1116.86401,419.624014 1114.112,416.872 C1111.35999,414.119986 1109.984,410.856019 1109.984,407.08 L1109.984,379.24 C1109.984,375.463981 1111.35999,372.200014 1114.112,369.448 C1116.86401,366.695986 1120.12798,365.32 1123.904,365.32 L1152.512,365.32 Z M1124.672,387.688 L1151.744,387.688 L1151.744,380.008 L1124.672,380.008 L1124.672,387.688 Z M1219.04,365.32 C1222.88002,365.32 1226.15999,366.695986 1228.88,369.448 C1231.60001,372.200014 1232.96,375.463981 1232.96,379.24 L1232.96,421 L1190.432,421 C1186.59198,421 1183.31201,419.624014 1180.592,416.872 C1177.87199,414.119986 1176.512,410.856019 1176.512,407.08 L1176.512,385.768 L1218.272,385.768 L1218.272,380.008 L1176.512,380.008 L1176.512,365.32 L1219.04,365.32 Z M1218.272,406.312 L1218.272,398.632 L1191.2,398.632 L1191.2,406.312 L1218.272,406.312 Z M1278.56,380.008 L1257.92,380.008 L1257.92,406.312 L1278.56,406.312 L1278.56,421 L1257.248,421 C1253.34398,421 1250.03201,419.624014 1247.312,416.872 C1244.59199,414.119986 1243.232,410.856019 1243.232,407.08 L1243.232,348.808 L1257.92,348.808 L1257.92,365.32 L1278.56,365.32 L1278.56,380.008 Z" id="Global-Day-of" fill="#1A3238" sketch:type="MSShapeGroup"></path>
        </g>
    </g>
</svg>